<svg version="1.1" id="レイヤー_1" xmlns="http://www.w3.org/2000/svg" x="0" y="0" width="205" height="70" style="enable-background:new 0 0 205 70" xml:space="preserve"><style>.st0{fill:#fff}</style><path class="st0" d="M76.408 2.185c.03-1.51 1.34-1.21 1.86-2.1.25-.13.48-.13.83-.13.01.63.73.93.55 1.7-.17 0-.36.02-.54-.01-.41-.06-.76-.7-1.23-.2-.08.08-.08.43-.03.46.47.26.59 1.12 1.3.99.45-.08.91-.05 1.48-.07.38.33.28.65.04 1.08-.33.38-.67.54-.92.83-.4.48-.17 1.75-1.2 1.41-.86-.3-1.72-.74-1.92-2.1l-.12-.46c-.09-.5-.13-.89-.1-1.4zM81.148 54.965c-.31-.52-.55-1.03-.88-1.75 1.1-.04 1.44.42 1.15 1.64-.04.11-.2.11-.27.11zM111.718 42.595c-.03-.39-.03-.66-.02-1.06.07-1.49-.2-1.68-1.81-1.27-.07.08-.08.06-.08.07-.68.52-1.28.32-1.72-.4-.6-.97-1.26-1.08-2.08-.39-.26.22-.55.3-.87.22-.88-.2-1.47.28-1.9 1.1-.39.74-.9.91-1.64.39-.42-.25-.64-.54-.72-.97-.07.4.18.59.46.91.12.15.16.22.15.39-.23.41-.41.72-.64 1.12-.21.3-.41.37-.75.33-.45-.23-.67-.76-1.24-.52-.18.13-.27.21-.43.47-.3 1.92-1.47 1.38-2.47 1.35-.52-.69-.45-1.35-.25-2.02.02-.05.05-.1.08-.14-.05-.01-.09-.01-.22.02-.14.05-.2.05-.35.06-.2-.03-.38.02-.37.08.23 1.71-.82 2.19-1.99 2.69-.25.09-.4.1-.55.09-2.31-.29-2.31-.29-4.45 1.88-.02 1.41-.02 2.71-.02 4.16-.59-.54-1.18-1.28-1.31.24-.03.39-.39.23-.71.03-.25-.16-.36-.32-.43-.63-.01-.72-.02-1.33-.02-2.09.01-.62.25-1.03.25-1.61-.03-1.16.2-2.29-.89-3.01 1.48 1.19-.24 2.18-.02 3.41.03.38.01.63-.15.97-.24.3-.42.5-.69.75-.27.58-.59.78-1.17.5-.1-.08-.1-.09-.1-.08-.38-.13-.4-1.29-1.17-.44-.78 1.58-1.62 1.15-2.01-.02-.38-1.14-.99-1.84-1.81-2.42-.74-.53-.6-1.58-1.13-2.36-.07-.34-.03-.56.06-.88.11-.31.21-.51.36-.8.49-1.41-.66-1.31-1.19-1.91-.98-1.89-.92-2.23.27-3.62 1.31-1.54 2.62-3.08 3.76-4.81.43-.65 1.03-.74 1.67-.51.36.13.64.41.68.87.04.58-.36.8-.69 1.08-.74.66-1.08 2.58-.63 3.41.17.31.44.42.65.21.63-.62 1.14-.3 1.8.01 1.51.73 1.54.65.91 2.51.87.03 1.73.19 1.17-1.34-.17-.47-.18-.92-.14-1.39.04-.43.06-1.03-.27-1.13-1.57-.48-1.52-2.13-1.98-3.42-.18-.5-.24-.93.13-1.28.58-.56 1.26-.81 2.01-.61.5.13.79.53.79 1.16 0 .24-.06.47-.07.71-.04.58.2.91.68.98.53.07.77-.27.76-.84-.03-.94.41-1.56 1.06-2.2.13-.14.17-.2.3-.34.29-.29.49-.5.79-.78.21-.14.34-.2.58-.28.7-.18 1.31-.48 1.9-.11 1.31.83 1.38-.02 1.24-1.31-.05-.65-.05-1.17.27-1.73.2-.18.33-.24.56-.28.26-.02.45.03.56-.3.09-.4.2-.68.47-.99.7-.34 1.35-.48 2.05-.85.42-.08.71-.04 1.03.27.04.74.28 1.09.96 1.09.97.32 1.79.02 2.71-.32 1.51-1.18 3.23-.88 4.77-1.38.45-.15.95-.16 1.22.4.3.64.02 1.19-.44 1.5-.86.59-1.23 1.59-1.52 2.56-.29.94-.42 2.03.91 2.43.43.03.74.02 1.17.03.44-.01.76.02 1.19.07 2.04.3 3.84 1.02 5.62 1.91.85.42 1.81-.1 2.71-.26.7-.12 1.31-.15 1.92.31.3.23.66.48 1.01.39 2.33-.67 3.65 1.25 5.15 2.68.44-.27.35-.84.54-1.23.3-.6.77-.97 1.27-.55 1.16.97 2.51.93 3.81 1.17.54.1 1.18.18 1.42.89.29.84-.27 1.32-.74 1.78-.92.9-.8 2.27-1.24 3.53-.2.54-.4.91-.78 1.29-.86-.22-1.55-.35-1.91.82-.09.3-.46.41-.87.38-.37-.12-.44-.66-.77-.53-.17.06-.06.4-.11.74-.78 1.07-1.31.28-1.97-.26-.32-.19-.64-.36-.78-.09-.51 1.02-1.13.57-1.85.28-.42.14-.75.24-1.18.05-.15-.08-.21-.12-.34-.24-.23-.27-.39-.5-.63-.01-.19.38-.41.57-.74.79-.87.23-1.48.77-2.21 1.29-.32.01-.53 0-.85-.02-.34.19-.65.25-.76-.04-.38-.99-.94-1.32-1.9-1.17-.73.09-.78-.88-1.09-1.58z"/><path class="st0" d="M76.668 3.625c.37 1.29 1.21 1.95 2.48 2.28-.19-1.09.1-1.84 1.19-2.02.65.18.92.71 1.27 1.32.2.64.4 1.13.85 1.37 1.22.63 1.95 1.71 2.18 3.22.14.91 1.02.34 1.39 1.01.13.19.16.3.2.41.15.53-.12 1.23.48 1.56.19.11.43.09.55-.12.36-.61.13-1.23-.03-1.85-.28-1.08-1.23-1.53-1.71-2.57-.04-.39.03-.63.28-.9 1.25-.09 2.23.39 3.01 1.38.3.38.51.56.84-.08.3-.1.53-.11.86-.15.66.22 1.27.77 1.67-.42.5-.17.84.05 1.02.39.64 1.22 1.5 1.34 2.64.81.42.09.73.04 1.1-.23.23-.08.37-.09.62-.05 1.35.57 1.53 1.44.98 2.83-.84 2.11-2.17 3.38-4.13 3.84-.98.23-1.71 1.04-2.52 1.62-2.21 1.57-4.44 2.5-7.12 2.08-1.1-.17-2.21.04-3.17-.83-.19-.18-.57-.23-.74-.04-1 1.13-2.64 1.22-3.35 2.88-.54 1.26-1.76 1.56-2.87 2.19-.56.15-1.03.18-1.24.8-.13.38-.37.72-.64.99-.87.87-1.93 1.27-2.99.84-1.02-.41-.8-1.64-.85-2.63-.06-1.2.16-2.35.52-3.48.29-.9-.01-1.36-.83-1.39-1.51-.07-3.04-.62-4.51.37-.53.35-1.18.38-1.86-.1-.49-.81.16-1.21.37-1.78-.7-.05-1.06.56-1.56.82-.93.48-1.83 1.06-2.92.91-.49-.07-.9.09-1.23.54-1.35 1.82-3.08 2.41-5.08 1.99-1.42-.3-2.06.65-2.49 2.11-.2.99-.38 1.87-.92 2.55-.79.99-.4 1.59.49 1.99.83.37 1.43.92 1.4 2.16-.98.92-1.66.13-2.46-.51-.32.99-.06 2.6-1.59 2.19-.94-.25-1.32-1.51-.92-2.95-1.01.21-1.77.84-2.54 1.51-.89.77-1.39.53-1.61-.72-.26-1.48-.51-2.97 1.07-3.8.38-.2.49-.72.54-1.22.26-2.28.27-2.28 2.24-2.23.07-1.87.23-2.12 1.87-2.2.81-.04 1.3-.32 1.36-1.27.09-1.34 1.68-1.87 1.38-3.54.38-1.69 1.96-1.89 2.57-3.18.05-.11.32-.2.42-.13 1.24.91 2.18-.28 3.34-.57.42.07.73.1 1.16.14.32.19.53.37.74.52.74.54 1.46 1.04 1.8-.49.05-.22.32-.26.62-.16 1.12.88 1.14-.7 1.84-.92.8-.88 1.72-1.12 2.79-1.23a5 5 0 0 0 .85.06c1.54-.71 3.18-.24 4.7-1.08.34-.22.6-.34.96-.47.23-.03.37-.03.59-.1.19-.74.29-1.43.39-2.12.04-.22.1-.44.16-.66.94.7 1.2-.5 1.87-.84.15.04.2.06.25.08.63.27.62 1.66 1.34 1.39.65-.21.16-1.4.64-2.12z"/><path class="st0" d="M49.838 15.215c-.02 1.12.59 2.39-.84 2.81-.12.03-.27.27-.27.4.12 2.21-.88 2.39-2.54 2.4-1.63.01-.29 1.61-.5 2.47-.45.3-.75-.18-1.11-.31-1.06-.36-1.7 0-1.42 1.35.24 1.17-.22 1.83-.96 2.32-.4.26-.97.3-.92.98.06.93.14 1.89.42 2.75.17.52.55.1.82-.22 1.03-1.22 2.33-1.7 3.9-1.78-1.21.86-1.53 1.8-.45 2.95.28.3.58.5.97.27.37-.22.51-.61.38-1.05-.19-.59-.38-1.2.25-1.53.72-.37.81.48 1.08.91.35.53.84.32 1.4.38.99-.62 1.56-.3 1.91.87-.17.69-.57 1.39.6 1.13.14.11.18.18.26.36.01 1.28-.58 2.18-1.01 3.14-.26.58-.52 1.12-.23 1.91.05.29.05.45 0 .73-.4.81-.84 1.44-1.27 2.23-.19.19-.31.25-.56.32-.51.03-.95-.08-1.33.47-.3.31-.56.44-.95.54-.68-.01-.93-.36-.91-1.01.05-1.66-.99-2.04-2.03-1.9-1.23.16-1.8-.44-2.22-1.6-.24-.65-.51-1.33-.94-1.82-.43-.49-.55-1.77-1.58-1.09-.91.61-1.38 2.03-.93 2.96.54 1.11.45 1.79-.85 1.96-.69-.46-1.28-.75-2.01-.12-1.28-1.07-2.61-1.16-4.07-1.02-1.16.11-1.27.65-.94 1.82-.1.58.2 1.19-.35 1.45-.28.13-.44-.11-.54-.53-.79-.63-.38.56-.87.63-.65-.42-1.2-.89-1.85-1.41-.44-.72-.65-1.27-1.49-.48-1.26 1.17-1.97 1-3.19-.35-.53-.58-1.08-.83-1.81-.7-1.56.28-2.8-.19-3.59-1.95-.47-1.05-1.2-.96-1.6.3-.47 1.48-1.44 2.27-2.49 3.01-.86.61-1.83.12-2.37-1.1-.47-1.06-.23-1.89.88-2.32.7-.27.94-.76 1.14-1.48.34-1.24.46-2.56 1.06-3.83.06-1.36.13-2.53 1.81-2.12.66-.06.67-.79 1.18-1.07.28-.17.48-.24.79-.27.6.07 1.09.11 1.69.19.34.01.85.55.64-.34-.08-.32-.12-.64.04-1.07.25-.36.97-.14.66-1 .38-.45.18-1.34.73-1.33.71.01.4.74.4 1.23 0 .31.26.33.46.34.27.01.57-.09.58-.43.02-.86.76-1.41.69-2.3-.02-.28.03-.68.37-.57.17.06.26.46.46.78.29.24.38.76.77.3.5-.58.91-.54 1.04.37.05.35.02.77.48.71.35-.05.75-.12.87-.6.14-.58.31-1.13.84-1.57.3-.17.52-.2.84-.17.58.18.72.54.62 1.09-.06.31-.36.67 0 .92s.68-.05.93-.32c.27-.3.63-.32 1.01-.57.06-.1.07-.09.07-.1.84-.57 1.71-1.06 2.65-1.68 1.13-.3 2.04-1.4 3.23-.51.27.21.72-.08.94-.42.57-.9 1.28-1.44 2.27-1.6 1.15-.18.18-1.46.74-2.12.06-.1.08-.07.07-.09.42-.55.92-.02 1.46-.18.73-.21 1.37-.37 2.13-.52.46-.03.8-.11 1.24-.02.49-.34 1.41-.1 1.04-1.31.18-.47.29-.97.84-1.15.71.11 1.03.61 1.34 1.28zM186.368 9.515c.64.06 1.17-.52 1.88.13.21.18.24.24.31.41.11.3.18.5.36.75.09.14.13.2.2.35.16.35.3.57.59.79.76.52.86 1.6 1.72 2.04.66.62 1.38.81 2.11 1.24.3.69.02 1.1-.4 1.58-.6.44-1.18.28-1.86.39.23.58.58.98 1.02 1.44.51.73 1.23.93 1.74 1.64.08.35.1.6.15.98-.77.48-1.3 1.55-2.42 1.2-.33-.26-.5-.53-.78-.85-1.06-.25-1.89.42-1.6 1.63.52 2.23-.59 2.15-1.92 2.16-.32 0-.53-.03-.84-.06-.99.27-1.82.76-2.69-.24-.42-.47-.8.1-.92.69-.1.49.07 1.08-.53 1.39a13.2 13.2 0 0 0-.9-.05c-.61-1.26-1.17-1.86-2.2-.52-.31.4-.93.47-1.53.57-.43-.17-.77-.29-1.21-.42-.29 0-.46.06-.66.27-.4.17-.73.26-1.17.41-1.01 1.13-2.58.68-3.45 1.96-.16.24-.6.06-.8-.28-.29-.48-.38-1.17-.06-1.51 1.86-1.99-.22-3.84-.09-5.76.02-.27-.22-.63-.47-.63-1.33 0-2.22-1.15-3.36-1.63-.98-.41-1.87-.54-2.78.17-.77.59-1.5.52-2.27-.16-.6-.53-1.21-1.07-1.27.63-.04 1.31-.13 2.19 1.27 2.27.37.02.66.33.67.83s-.26.78-.63.89c-.9.28-.92.6-.77 1.81.33 2.73 1.35 3.8 3.66 3.65.6-.04 1.04.7 1.62 1.22.25.43.3.79.27 1.31-.04.23-.06.32-.15.52-.77.91-1.8.67-2.69 1.23-.39.34-.67.63-1.11.88-.57.17-1.01.03-1.52-.26-.53-.44-.87-.99-1.58-1.07-.44-.16-.7-.41-.87-.89-.12-.22.22-.3-.05-.34-.13.67.22 1.23.01 1.92-.1.15-.16.2-.31.3-.37.15-.65.22-1.03.34-.33.06-.55.04-.85-.16-.09-.08-.08-.09-.08-.09-.16-.31-.29-.66-.66-.94-.24-.41-.28-.79-.47-1.22-.19-.27-.32-.43-.5-.72a.993.993 0 0 1 .01-.7c.25-.41.87-.34.71-.91-.14-.47-.58-.65-1-.69-.61-.06-1.12.15-1.4.83-.2.48-.01 1.08-.4 1.62-.69.34-1.22.18-1.83-.29-.5-.77-.66-1.51-.6-2.47.79-2.75 1.09-3.06 2.88-2.92 1.69-.06 1.94-1.85 2.81-2.84.24-.27.04-.67-.3-.84-.38-.19-.73-.42-1.09-.65-2.07-1.32-2.06-1.81-.91-4.25.63-1.34 1.61-1.77 2.52-2.58 1.68-1.49 3.9-1.83 5.41-3.77.71-.34 1.25-.86 2.05-.87 1.28 1.18 1.33 1.54.16 2.29-1.03.65-.9 1.34-.36 2.38 1.09-1.21 1.48-2.86 2.51-4.12.54-.27.97-.08 1.5.08.34.18.66.43.57.67-.51 1.28.3 2.14.76 3.2.32.21.57.3.93.32 1.63.33 1.73-1.29 2.42-2.28.21-.09.35-.1.59-.11.94-.42 1.68-.96 2.16-2.04.23-.07.37-.07.61-.05.24.17.33.39.64.4.38-.37.7-.66.95-1.02.46-.64.81-.89.81.24 0 .47.14.64.51.63.36-.01.62-.22.59-.63-.1-1.22.63-1.44 1.48-1.73.55-.28.94.03 1.31.25.58.35.66-.11.86-.63.46-.38.54-1.08 1.21-1.16.59 1.17 1.81 1.58 2.32 2.76.03.14.2-.28.48-.31z"/><path class="st0" d="M150.278 28.765c.11.85.21 1.59.32 2.46.74 2.32 2.59 1.42 3.91 2 .26.12.61-.04.97.22.54.11.7.43.67 1.04-1.14-.48-1.98.59-2.94.89-.83.26-1.54.41-2.37.01.18-.71.77-.19 1.06-.66-.61-.21-1.14-.75-1.81-.27-.92.67-2.05.22-3.01.77-.39.22-.69-.4-1.05-.61-.53-.32-.72-1.59-1.32-1.22-.58.36-.85 1.38-1.24 2.13-.1.2-.09.48-.2.67-.28.49.25 1.54-.65 1.53-.81 0-2.05.87-2.21-1.08-.03-.42-.29-.64-.65-.53-.4.12-.81.26-.87.85-.04.38.04.71.41.83.33.11.78.08.7.7-.07.55-.52.91-.86.88-.71-.07-1.39 1.17-2.18.1-.05-.07-.89.82-1.74.59-.63-.17-1.41.9-2.06-.36-.14-.28-.64.17-.76.6-.15.5-.26 1.02-.39 1.67-.12.27-.26.32-.51.23-.23-.09-.36-.11-.6-.14-.36-.2-.5-.49-.68-.9.25-1.82.18-3.68 1.83-4.71.48-.3.39-.94-.29-1.11-.7-.18-1.38-.46-2.12-.37-.8.1-1.53-.13-2.13-.78-.83-.91-1.24-.62-1.34.6-.04.57.12 1.34-.57 1.44-.59.08-.77-.59-1.01-1.14-.42-.96-2.76-2.13-3.73-1.97-.35.06-.83.19-1.06-.01-1.57-1.39-3.14-.65-4.73-.15-.14.05-.42.1-.43.08-.44-1.71-2.18-.44-2.92-1.75-.43-.75-1.59.04-2.44-.56-.47-.63-.13-1.01.24-1.17 1.28-.59 1.93-1.86 2.68-3.21.17-.35.31-.55.56-.83.6-.43 1.1-.61 1.7-.03.35.72.1 1.21-.21 1.7-.15.24-.29.53-.08.79.25.32.55.18.83.04.48-.23.83-.63 1.1-1.14.29-.54.59-1.12 1.37-1 .19.12.27.19.33.29 1.6 2.71 3.18 5.46 6.74 4.69 1.26-.09 2.19-.76 3.11-1.48.46-.36.95-.65 1.62-.76 2.14.74 4.18 1.25 6.41.49.74-.2 1.51 1.17 2.08-.37.54-.83 1.22-1 1.96-1.02.71-.01 1.43.04 2.11-.3.74-.37 1.39-.27 1.93.46.65.89 1.38.8 2.19.3.92-.57.77-1.38.45-2.39-.08-.58.07-.96.37-1.22.86-.76 1.2-1.61.83-2.91-.23-.79.19-1.61.73-2.22.29-.33.62-.62.87-1 .21-.33.53-.67.38-1.09-.19-.51-.63-.26-.95-.21-1.24.17-2.34.01-3.08-1.37-.74-1.36-.7-2.7.44-3.59 1.15-.9 1.91-2.09 2.68-3.49.21-.11.33-.14.55-.18.63-.34 1.27-.28 1.89-.66.52-.06.93-.2 1.46-.2.61.09 1.05.82 1.72.18 1-1.32 2.36-1.49 3.67-2.04.08-.08.07-.1.08-.09.2-.25.41-.48.83-.45.61.51 1.13.87 1.84.84.8-.03 1.3.48 1.34 1.6-.99.23-.47.93-.38 1.57.08.37.11.62.12 1.01-.02.41-.08.67-.28 1.01-.38 1.45-1.39 1.99-2.34 2.16-.98.18-1.56.76-2.17 1.47-.49.57-.9 1.37-1.79.84-.11-.06-.3.02-.44.08-.57.26-1.92 3.63-1.69 4.3.47 1.33 1.64 1.5 2.61 1.96.39.18.99.25.69.81-.8 1.49-1.41 3.25-3.18 3.86-.54-.51-.94-1.01-1.67-.86-1.52.3-1.88 1.05-1.25 2.86zM51.808 31.835c-.02-1.18-.51-1.59-1.51-1.52-.36-1.05-.8-1.68-1.85-1.87-1.07-.19-1.3-1.64-.45-2.45.62-.59.62-1.46.93-2.33.43-.57.8-1.05 1.15-1.58.58-.88 1.15-1.52 1.73.05.32.88.86.29 1.3.12 2.33-.91 4.47-2.28 6.61-3.67.73-.47 1.53-.7 2.43-.14.95.91 1.8.3 2.5-.15 1.73-1.09 3.39.18 5.08.04.59-.05.58.82.31 1.42-.52 1.18-.82 2.43-.69 3.76.08.83-.39 2.15.56 2.31 1.03.18 2.27.03 2.97-1.29.08-.15.14-.32.17-.49.17-.83.71-.92 1.43-.89.61 1.07-.62 1.44-.59 2.62 1.4-.86 2.64-.28 3.93.32.79.37 1.71.44 2.55-.06.93-.56 1.66-.47 2.12.77.31.85.93 1.17 1.64.77 1.66-.92 3.73-.26 5.23-1.81.11-.11.31-.14.45-.08 1.93.78 2.93-.58 3.87-2.17.58-.97 1.34-1.62 2.44-1.57.31.01.63-.07.89-.27 2.66-2.05 5.95-2.58 8.57-4.72.33-.27.75-.39.92-.97-1.28-.93-3.38-.29-3.77-2.81.36-.45.77-.57 1.16-.69 1.32-.4 2.11-1.32 2.31-2.92.07-.58.27-1.15.62-1.59.33-.42.88-.52.98.04.36 1.92 1.66 1.77 2.85 1.95.2.03.39.12.69.23.66.04 1.17 1.55 1.86.03.53-.38.98-.35 1.54-.05.26.15.41.22.61.38.25.68-.12 1.01-.46 1.22-1.1.69-.18.88.27 1.3.32.78.03 1.24-.43 1.61-.52.42-.88 1-1.23 1.59-.86 1.48-.59 2.19.96 2.49.57.11 1.2.17 1.35.94.17.86-.41 1.24-.97 1.61-1.29.84-2.56 1.45-4.06.58-.47-.27-1.04-.5-1.73-.38.19.7 1.05.94.91 1.75-.14.78-.82 1.03-1.23 1.53-.29.34-.64.59-.97.88-1.17 1.03-1.31 1.92-.58 3.65.08.51-.04.83-.36 1.2-1.41.17-1.81-.71-1.61-2.05.21-1.45.6-2.83 1.82-3.6.4-.25.75-.54.52-1.08-.19-.45-.63-.37-.95-.19-1.44.82-3.19.15-4.67 1.3-.92-.44-.44-2.37-1.95-2.05-.9.19-1.74.64-2.72.9-.65.59-1.26.94-2.12.79-.49.42-.88.81-1.29 1.35-.53.49-.33 1.07-.38 1.73-.46.83-1.09 1.17-1.84 1.19-.53.01-1 .15-1.48.64-.22.09-.36.09-.6.09-.27.19-.44.38-.66.64l-.06.07c-.57.65-1.23.83-1.98.49-1.35-.61-2.64-.37-3.84.42-.85.56-1.59.53-2.47.09-1.42-.71-2.91-1.13-4.47-.48-1.03.43-1.82-.24-2.49-.97-1.48-1.64-3.01-1.85-4.71-.5-1.15.91-2.58.65-3.94 1.14-1.8-1.78-1.93-3.35.11-4.88 1.03-.77 1.53-2.08 2.04-3.3.47-1.1.01-1.79-1-1.54-.69.17-1.31.16-1.95-.17-.38-.2-.88-.36-1.2-.12-2.09 1.53-4.8 1.29-6.74 3.21-.16.15-.35.26-.5.41-.62.63-1.71.59-2.01 1.51-.32.99.57 1.69.88 2.54.2.55.2 1.09-.19 1.47-.67.66-1.09 1.57-1.87 2.27-.3.16-.45.14-.69-.01z"/><path class="st0" d="M102.528 13.025c.85 1.89 2.32 1.91 3.64 2.25.4.1.89.06 1.02.61.14.61-.35.79-.7 1-2.13 1.31-4.15 2.89-6.57 3.52-.72.19-1.34.84-2.02 1.24-.45.26-.8.9-1.34.79-1.8-.37-2.7 1.12-3.33 2.48-.75 1.62-1.67 1.69-2.91 1.28-.66-.22-1.13-.19-1.53.64-.47.97-1.43.28-2.16.54-.75.27-1.59.25-2.34.7-1.1.66-1.92.21-2.23-1.11-.2-.87-.6-1.22-1.17-.75-1.48 1.23-2.89.71-4.22-.16-.86-.56-1.55-.33-2.31.1-.38.22-.82.42-1.14 0-.36-.48.04-.85.3-1.22.35-.5.69-1.01 1.05-1.64 1.08-1.05 2.89-1.06 2.9-3.3 0-.32.36-.4.62-.38.8.07 1.29-.38 1.81-1.07.75-1 1.69-1.1 2.52-.06.49.62.96.82 1.59.33.26-.2.56-.33.87-.19 2.58 1.1 4.57-.43 6.75-1.71 1.01-.59 1.63-2.22 3.26-1.73 1.02.31 3.74-3.32 3.74-4.63 0-.72-.69-.79-1.1-1.28-.26-.3-.29-.57-.13-.97.71-.9 1.46.13 2.18-.39.36-.51.82-.66 1.21-1.1.21-.19.36-.3.6-.42.57.57.4 1.21.14 1.8-.28.65-.38 1.33-.51 2.03-.34 1.8-.26 1.98 1.51 2.8zM64.578 30.325c1.99-.82 4.01-1.1 5.82-2.29.89-.59 2.08.01 2.9.98.96 1.13 1.84 1.93 3.47 1.1 1.16-.59 2.65.02 3.83.72.77.46 1.28.62 2.09.06 1.36-.93 2.86-1.38 4.4-.46.53.32.99.11 1.59-.1-.21 1.05-1.56 1.53-1.01 3.18.18.53-.85.88-1.47.61-.53-.23-1.3-.39-.88-1.46.2-.51.63-1.14-.11-1.49-.73-.34-1.39.13-2.01.55-.17.12-.21.4-.04.62.07.09.22.14.23.23.22 1.48.56 2.8 2.04 3.32.36.13.35.94.16 1.48-.14.4-.28.79.1 1.12.38.34.81.67.33 1.27-.47.58-1.03.99-1.76.88-.39-.05-.66-.35-.83-.73-.25-.59.25-.67.51-.88.25-.2.59-.37.44-.8-.18-.51-.51-.16-.78-.11-.36.07-.74.16-.93-.34-.3-.79-.48-.52-.76.04-.29.58-.82.43-1.24.25-.54-.24-.55-.75-.37-1.34.08-.26.15-.66.03-.84-.8-1.21-.2-1.79.68-2.33.34-.2.88-.25.83-.87-.03-.39-.37-.53-.7-.56-.47-.03-.95-.05-1.2.55-.76 1.82-2.2 2.96-3.35 4.38-.84 1.04-1.74 1.87-.79 3.52.51 1.56-.59 2.13-1.23 3.07-.35.25-.64.26-1.03.15-.46-.28-.64-.75-1.12-1-.87-.43-.27-1.59-1.04-2.07-1.03-.52-1.78-.28-2.4.83-.74.39-1.4.63-2.23.44-.32-1.31-.32-1.31-2.68-1.16-1.07 1.42-2.25 2.22-3.94 1.7-.31-.09-.54-.1-.89-.13-.58-.44-1.23-.46-1.77-1-.21-.43-.23-.77-.13-1.24.6-1.01 1.54-1 2.43-1.45-.75.19-1.32.01-1.93-.45-.49-1.73.9-1.88 1.6-2.76 1.44-.76 2.52-1.71 3.02-3.43.33-1.01 1.14-1.48 2.12-1.76zM137.918 28.765c.05.72-.12 1.16-.64 1.38-.65.28-.76-.38-1.13-.83-.63-.37-1.07-.88-1.68-1.09-1.31-.44-1.55-1.71-1.63-3.17 1.02-.81 1.83-.05 2.66.32 1.02.46 1.78.47 2.18-.94.19-.65.66-1.05 1.22-1.28.86-.36 1.47-.85 1.67-2.06.17-1.04 1.91-.93 2.66.24.54.84.93 1.61 1.92.76.91-.77 1.12-1.86.56-2.97-.33-.66-.84-.88-1.43-.83-1.65.13-3.16-.19-4.47-1.47-.31-.3-.73-.43-1.16-.45-.5-.03-.92.17-1.21.64-.34.57-.05 1 .29 1.41.42.51 1.04 1.09.37 1.78-.77.8-1.33-.04-1.8-.64-1.65-2.12-1.6-2.06-3.69-.65-1.29.86-2.44 1.98-3.82 2.67-.46.23-.69.57-.83 1.16-.34 1.5-1.77 2.19-2.68 1.18-.8-.89-1.72-1.24-2.67-1.65-.62-.27-1.15-.6-1.02-1.51.11-.82.63-1.18 1.27-1.36.3-.09.61.02.92.01.37-.01.99.29.97-.42-.02-.66-.47-1.26-1.17-1.07-1.04.27-2.13.49-2.65 1.85-.25.64-.6 1.26-1.12 1.67-.36.29-.77.36-1.17.11-.47-.29-.42-.8-.24-1.25.3-.76.26-1.4-.06-2.19-.62-1.53-.37-2.28.97-3.27.72-.53.13-.86-.1-1.39-.3-.76-.99-1.12-.89-2.08.64-.9 1.4-1.1 2.37-1 .78.81 1.38 1.7 2.54 1.37.38-.11.82.14.95.7.12.52-.12.9-.38 1.29-.29.44-1.07.65-.77 1.36.31.71 1 .39 1.55.32s1.12-.02 1.35.58c.5 1.28 1.9 1.65 2.23 3.11.12.52.6.51.86.12.74-1.11 1.85-1.46 2.86-2.02 3.13-1.74 5.78-4.28 8.58-6.79.68-.4 1.22-1.22 2.01-.22 1.5-.74 3.37.05 4.65-1.55.22-.28.88-.08 1.47-.08-.15 1.72-.88 2.97-2.3 3.76-.7.39-1.21 1.36-.88 2.26.33.92.68 2.09 1.84 2.13.56.02 1.13-.03 1.68-.14.44-.08.92-.45 1.23.18.23.47-.01.9-.26 1.3-.35.58-.63 1.23-1.23 1.56-.66.36-.96 1.44-.78 1.78 1.13 2.11-.47 2.87-1.33 4.14-.88 1.76-1.38 2-2.86 1.49-.83-.29-1.65-.61-2.47-.95-1.58-.67-3.11.54-3.31 2.69zM166.178 31.075c-1.36-.98-2.74-1.17-4.23-1.18-1.03-.01-1.15-1.19-1.15-2.16 0-.92-.21-1.6-.75-2.38-.8-1.16.48-1.1.96-1.42.31-.2.96.09.91-.61-.04-.66-.61-.49-1-.49-1.29-.01-1.73-.61-1.05-1.99.13-.27.27-.5.12-.81-.2-.43-.77-.95-.15-1.34.59-.37 1.34-.33 1.83.37.6.85 1.18.88 1.98.34 1.47-.98 3.32-.71 4.54.63.36.4.69.79 1.18.59 1.36-.55 1.5.61 1.58 1.58s.21 1.82.67 2.68c.43.8.71 1.75-.41 2.33-.65.34-.74 1.16-.42 1.66.57.87.82-.12 1.1-.49.71-.94 1.8-.3 2.71-.89-.26.89-.41 2.18-1.76 1.49-.13-.07-.38.09-.53.21-.12.09-.16.32-.28.42-1.02.83-2.78.84-2.56 3.06-.24-.05-.49-.11-.85-.17-.32.92-.65 1.58-1.68.83-.16-.22-.22-.37-.28-.65-.1-.75.21-1.25.44-1.78-.34-.27-.53.21-.92.17z"/><path class="st0" d="M140.788 10.565c-3.01 3.01-6.06 5.74-9.65 7.53-.73.36-1.32.74-1.8 1.51-.68 1.09-1.29.9-1.61-.46-.18-.76-.46-1.27-1.14-1.48-.34-.11-.66-.35-.71-.84-.12-1.22-.73-1.24-1.54-.87-.23.1-.51.05-.76.07-.57.04-1.04-.24-1.25-.83-.24-.66.29-.94.65-1.23.46-.37 1.15-.69.93-1.43-.24-.79-1.04-.56-1.48-.33-1.32.68-1.1-.64-1.46-1.42.19-1.16.79-.86 1.31-.69-.09-.1.15.17.09.12-.76-.75-1.14-1.45.26-1.66 1.49-.22 2.85-.69 4.09-1.88.24.02.36.02.56.02.29-.14.45-.33.69-.58.54-.48.99-.98 1.79-.79.83.99-.31 1.59-.26 2.56-.85 1.71-.71 2.72.51 3.86 1.12 1.04 2.56.99 3.55-.22.57-.7 1.1-.88 1.91-.52.91.41 3.48-1.06 3.79-2.04.13-.4-.06-.69-.22-.99-.27-.51-.47-1.05-.57-1.78-.06-.72-.31-1.35.28-1.92 1.09-.12 1.56.73 1.57 1.56.02 1.07.61 1.64 1.03 2.53.1.89-.32 1.44-.56 2.2zM13.868 31.355c.23 1.82-.66 3.41-.83 5.18-.07.76-.7.54-1.13.58-.52.05-.9.28-.96.93-.09.93.59 1.32 1.03 1.88.36.47.7.31 1.06-.06.93-.95 2.23-1.46 2.37-3.27.05-.68.79-1.14 1.43-1.13.68.01.81.63.93 1.36.2 1.21 1.67 1.97 3.02 1.52 1-.34 1.68-.02 2.29.87.78 1.13 2.05 1.16 2.92.13.32-.38.32-1.37 1.03-.99.54.29.2 1.08.28 1.78-.34.25-.81-.28-1.04.44-.77 2.37-2.67 3.37-4.41 4.69-.29-.1-.41-.27-.58-.55-.18-.36-.28-.64-.43-1.01-.11-.33-.15-.55-.08-.89.35-.41.7-.63 1.12-.93.18-.08.3-.1.35-.18.06-.12-.01-.19-.24-.16-.95.48-1.79.64-2.72-.11-1.08-.24-2.1.17-3.07-.39-.41-.23-.87.1-.95.59-.22 1.3-1.06 2.08-1.82 3.09-.41.24-.72.23-1.11-.04-.12-1.01-.48-1.35-1.31-.88-1.88 1.71-5.29.39-6.34-2.34-.23-.6-.08-1.16.27-1.79.44-.2.78-.31 1.24-.44.68-.51.87-1.29 1.27-2.05.11-.48.04-.94.6-1.11.77.26.82.93.73 1.63 1.35-.38.6-1.96 1.45-2.66.12-.19.17-.28.31-.4.16-.34 1.02.12.56-.76-.15-.28.09-.64.37-.99.12-.6.39-.78.91-.77.23-.17.22-.39.35-.65.36-.09.69-.1 1.13-.12zM191.478 14.255c-1.24.01-1.14-1.44-1.9-2.05-.16-.76.17-.96.76-.9.19.15.27.23.38.39.26-.06.1.98.58.22 1.8-.15 1.32-1.73 1.4-2.96-.28-.32-.31-.59-.16-1.01.6-.51.99-1.17 1.53.09.4.91 1.69.91 2.47 1.02 1.58.21 1.78 1.37 1.9 2.63.18 1.82-.11 3.66.16 5.49.13.9-.62.64-.99.59-1.02-.11-1.44.34-1.31 1.66-.12.34-.23.54-.52.56-.24-1-.88-.67-1.5-.71-.48.15-.69-.11-.94-.5-.21-.68-.44-1.22-.48-1.93.24-.52.44-.92.65-1.44.41-1.11 1.1.22 1.54-.49-.1-1.76-.64-2.13-2.08-1.31-.43.28-.82.71-1.49.65zM59.808 35.565c-.45 1.11-1.8 1.05-1.93 2.48-.04.66-.17 1.18-.24 1.82-.06.48-.07.87-.08 1.4.06.34.02.5-.25.55-.75-.16-1.06.29-1.2.9-.14.62-.45.94-.98.81-1.78-.44-3.55-.91-5.44-1.39-.42.19-.44.61-.7.99-.11.19-.13.32-.21.39-1.21 1.14-2.61 2-3.7 3.33-.16.19-.59.4-.64.33-.3-.4-1.06-.33-1-.93.1-1.03.89.15 1.28-.49-.19-.61-.49-1.23-1.01-1.84-.05-1.56.79-1.95 1.83-2.02.5-.03.99.15 1.6.11.62.44.93.29 1.07-.55-.02-1.16.47-1.13 1.21-.79.72.61 1.33.48 1.91-.04.59-.53 1.24-.79 2.09-.66 1.48.29.34-1.12.87-1.55.72-.85 1.74-1.28 1.61-2.7-.02-.25.28-.53.53-.6.9-.24 1.45-.69 1.29-1.94-.07-.57.4-.93.92-.99.62-.07.99.3 1.08.98.14.76.32 1.52.09 2.4z"/><path class="st0" d="M47.438 42.035c-.46.32-.9.58-1.34.4-1.12-.46-1.77.18-2.37 1.27-.2.01-.34-.07-.57-.19-.13-.08-.19-.12-.31-.24-.38-.69-1.47-.54-1.17-1.79.18-.37.56-.41.56-.78 0-.16-.21-.13-.43-.11-.51.11-.62.49-.76.88-.19.54-.66.69-.99.39-.82-.76-1.8-1.35-2.31-2.52.67-.15 1.71-.37 1-1.15-1.26-1.38-.49-2.21.17-3.22 1.06-1.61 1.31-1.59 2.43-.06.63.86 1.13 1.77 1.46 2.83.24.77.61 1.31 1.51.93 1.52-.63 2.78.7 2.51 2.54-.04.25.15.42.47.51.13.09.16.15.14.31zM114.768 10.165c-.45.19-.93.24-1.49.4-.53.58-.98.07-1.53.1-1.01-.08-1.88-.46-2.81-.38-1.42.13-1.21-1.35-1.66-2.45-.82 2.56-1.26 5.46-4.46 5.33h-.12c-.52-.75-.02-1.28.3-1.86s.93-.94.96-1.85c-.01-1.44.47-2.32 1.75-2.62.18-.05.25-.07.43-.09.92-.33 1.73-.64 2.68-.63.2-.1.33-.12.55-.14.49-.34.87-.2 1.19.09.38.34.51.05.69-.37 1.38-.6 1.94.24 2.29 1.56.26 1.01.19 2.22 1.23 2.91zM4.918 39.525c.03 1.11.28 1.77.93 2.78 1.44 2.21 3.04 1.83 4.95 1.59.15.52.06 1.06.47 1.48.29.3.41.8.1 1.1-.39.37-.63-.15-.85-.43-1.2-1.5-1.35-1.49-2.43.2-.25-.51.49-3.09-1.17-.74-.32.46-1.24.39-1.89.5-.25.04-.51-.1-.37-.53.49-1.49-.27-1.19-1.02-.97-.82.25-1.62.12-2.41-.21-.3-.13-.84 0-.6-.67.13-.38.45-.37.78-.16 1.24.78 1.87.82 1.04-1.11-.27-.62.4-.71.73-.89.84-.45.98-1.31.26-1.69-.82-.43-1.04-.99-.79-1.74.3-.89 1.09-.87 1.87-.89-1.29 1.58-1.29 1.62.4 2.38zM60.068 42.605c.8-.03 1.53-.53 2.32-.61.91-.09.73-1.16 1.28-1.65.36.4.71.48 1.14.49.56 0 .76.43.69 1.16-.22.49-.5.71-1.24.86 1 .02 1.49.39 1.88.97.47.7.16 1.32-.12 1.95-.22.49-.05 1.05-.3 1.64-1.23.63-2.04-.47-3.01-.78-1.64-.52-2.64-1.78-2.64-4.03zM191.598 22.045c.4.16.8.6.98-.01.27-.91.88-.57 1.52-.65 1.09.47.62 1.38.58 2.13-.01.23-.28.34-.49.27-.42-.14-.24-.71-.61-1.19.1 1.87-.38 1.85-1.26.77-.87-1.07-1.5-.06-1.8.6-1.23 2.71-3.29 2.54-5.42 2.34-.39-.04-1.33-1.14-.97.67.09.44-.98.86-1.71.27.2-.3.37-.58.25-.86-.4-.9.07-1.55.58-1.95.56-.44 1.06.11 1.38.67.77 1.31 1.04-.87 1.75-.21.26.45.52.46.88.18.71-.11 1.35-.14 2.03-.18-.65-1.79-.18-3.5 1.03-4.25.57-.36.72-.14.76.61.08.39-.06.86.52.79zM161.528 11.375c-.12-.27-.11-.54-.11-.94.91-.48.46-1.23.5-2.07 1.25-.47 2.49-1.38 3.27.53.12.3.39.35.66.32.8-.11 0-.97.55-1.32 1.15 2.36 4.14 1.99 5.19 4.77-.04.34-.09.58-.22.77-.35.53-.22 1.59-.99 1.62s-.5-1.02-.82-1.47c-.61-.87-1.54-1.37-2.22-2.25-.53-.05-.97-.15-1.51-.25-.93 1.08-1.47.16-2.18-.39-.85-.23-1.23.94-2.12.68z"/><path class="st0" d="M65.748 47.545c-.18-.93-.37-1.68.21-2.64.51-.85-.44-1.46-1.21-1.66-.41-.11-1.13.76-1.18-.28-.04-.81.84-.33 1.25-.61.09-.06.18-.1.38-.21.39-.38.74-.49 1.23-.41.84-.11 1.58-.24 2.44-.37.25-.11.38-.17.65-.16 1.05.81.95 1.41-.13 1.84-.24.1-.5.15-.75.21-.53.14-1.14.37-.91 1.11.23.73.79.1 1.2.07.99-.08 2.21-.94 2.58 1.16-.1.67-.28 1.34-.86.84-.95-.82-1.42-.25-2.02.54-.43.56-.9 1.84-1.75.34-.13-.23-.57.7-1.13.23zM129.358 7.915c-.74-1.13.83-1.38.52-2.43.44-.21.87-1.55 1.35-.12.11.34.43.21.61-.05 1.28-1.83 3.06-1.34 4.72-1.35.21 0 .51.34.65-.01.6-1.49 1.05-.42 1.59.2-.28.61-.15 1.13.04 1.76-.27.46-.63.54-1.12.48-.4-.11-.68-.38-1.1-.11-.67.23-1.2.64-1.91.66-.21-.07-.24-.33-.32-.28-.12.07.06.21.03.46-.6 1.2-1.26 1.5-1.97.29-.48-.82-.99-.68-1.53-.15-.43.41-.83.87-1.56.65zM28.608 22.715c-.26.42-.68.87-.6 1.11.6 2.01-1.23 1.59-1.6 1.64-1.35.18-.11-1.24-.61-1.79-.56.2-.41 1.53-1.26 1.18-.53-.22-.04-.71-.04-1.2.28-.96.05-2.65 1.57-1.27.19.18.5-.05.57-.39.29-1.26 1.19-1.13 2.03-1.41 1.03-.34 1.16.32 1.31 1.05.22 1.06.57 1.9 1.79 1.87-.14 1.19-1.38 1.72-2.76 1.21-.01-.68.95-.98.49-1.88-.29-.36-.53-.52-.89-.12zM13.388 44.715c.25-1.58 1.52-2.4 1.78-3.89.06-.33.76-.72 1.06-.39.92 1.01 1.93.28 2.96.5.52 1.19-.6 1.35-.85 2.16-.37.54-.42 1.06-.38 1.73-.04.19-.06.27-.16.42-1.36-.37-2.61-.15-3.95.39-.38-.18-.46-.47-.46-.92z"/><path class="st0" d="M71.598 45.655c-.93-1.39-1.56-1.42-4.19-.15-.57-1.84-.06-2.75 1.67-2.8.43-.01 1.21-.16.58-1.21.5-.55 1.42.05 1.75-1.1 1.51-.02.49 1.3.92 1.99.2.57-.32 1.65.95 1.15.42-.01.74-.01 1.17 0 .79.41.72.89.18 1.35-.33.28-.7.51-1.18.75-.66.06-1.19-.64-1.85.02zM126.818 6.595c-.92 1.52-2.23 2.1-3.67 2.28-1.26.15-1.27.09-.6 1.33-.5.09-.99.19-1.55.38-.89.01-1.61.37-2.44.76-.59.37-1.14.53-1.66.76-.95.43-1.49.1-1.29-1.3.33-.29.68-.45.33-.87-.24-.3-.17-.52.04-.75.23-.25.46-.19.69.01 1.66 1.39 3-.04 4.34-.79.51-.29.67-.93 1.47-.37.83.58 3.2-.6 3.7-1.68.43-.95.49-.44.64.24zM104.168 9.515c.51.49.21.75-.05 1.05-.6.68-1.31 1.27-1.42 2.48-2.39.08-3.06-1.6-1.79-4.4.29-.64.61-1.23.56-2.12.17-.07.35 0 .57.17 1.79-.13 1.8 1.43 2.13 2.82zM101.398 41.125c.74.07 1.52.54 1.64-.87.02-.19.18-.49.32-.54 1.29-.42 2.59-.83 3.9-1.15.51-.13.88.25 1 .86.17.84.72.91 1.44.91-.19.43-.08 1.83-1.08.63-.39-.46-.94-.47-1.32.17-.31.53-.81.95-1.27.88-1.44-.21-2.91.23-4.46-.28-.12-.03-.12-.17-.12-.25-.04-.15-.07-.21-.05-.36zM41.698 17.095c.13.34.09.72.18 1.05.31 1.11.58 2.01-1.03 1.63-.57-.13-1.23.29-1.62 1.1-.53 1.09-1.37 1.53-2.33.58-.36-.35-.52-.21-.72.12-.31.52-.76.55-1.36.53-.3-.24-.33-.51-.16-.91.67-.94 1.47-1.29 2.35-1.47.89-.18 1.62-.71 2.15-1.54.31-.49.35-.69.92-.06.82.88.76-1.12 1.62-1.03zM97.368 8.185c.09.27.08.52.06.91-.14.13-.27.13-.51.14-.21.17-.35.29-.62.36-.19.01-.33-.04-.39.01-1.78 1.63-2.45-.53-3.61-1.39-.41-.37-.42-.78-.18-1.34.26-.96.44-1.64 1.11-.43.23.41.75.45.68-.21-.08-.8.06-1.04.7-.74.53.25.96.6.34 1.29-.17.19-.24.42.04.53.12.05.28-.08.51-.16.44-.03.67.25.96.6.07.08.06.08.06.08.07.09.15.17.29.3.2.03.33.04.56.05zM160.688 34.245c.55.14.99.26 1.55.4.59.47.9 1.17 1.67 1.41.38.21.59.44.63.93-.67 2.06-1.87 1.01-3.03.82-.51-.47-.39-1.09-.53-1.64-.45-.1-.59.52-1.07.59-.42 0-.75-.02-1.19-.04-.57-.67-.51-1.43-.41-2.33.03-.8-.53-1.4-.07-2.18.13-.13.19-.17.31-.14.06.49.22.8.6 1.07.58.31.88.92 1.54 1.11zM37.758 39.145c.9.72 1.59 1.54 2.31 2.34.37.42.83.33.65-.46-.31-1.3.34-.91 1-.72.3.25.33.52.18.95-.04.64-.17 1.29.64 1 .45-.16.48.27.52.75-.19.45-.5.57-.85.82-.49 1.38-.97.58-1.4.1-1.22-1.37-3.06-2-3.61-4.17-.04-.15-.66-.1-1.14-.15-.16-.06-.2-.12-.18-.27.6-.87 1.13-1.63 1.88-.19zM17.168 28.435c-.4.27-.59.57-.69.99-.11.43-.31.58-.6.02.08-.65.7-1.27-.26-1.64-1.56-.59-.21-2.01-.53-3.04-.26-.81.77-.08 1.13-.29.88-.53 1.82.17 2.77-.38.55-.32 1.61.12 1.74 1.49.02.48.58 1.2-.43 1.15-.57-.12-.81-.73-1.44-.63-1.45.23-1.68.47-1.69 2.33zM86.088 11.125c-1.17-.25-1.88-.87-2.08-2.2-.17-1.13-1.01-1.57-1.78-1.97-.57-.3-.97-.61-.88-1.54.29-.85.12-1.7.57-2.49.55-.02 1.19-.39 1.48.22.33.68-.31 1.03-.63 1.44-.27.35-.46.65.06 1.04 1.05.6 2.11.46 3.22.72.2.35.2.62.03 1-.18.27-.28.43-.39.7-.42 1.06.23 1.46.7 1.97.45.5.67.99-.3 1.11zM126.708 43.095c.67.05 1-.36 1.26-.9.22-.46-.22-1.35.56-1.4.66-.04.24 1.11.95 1.28.44.17.59.45.49.98-.99.09-.96 1.38-1.61 1.66-1.14.48-2.38 1.64-3.28-.48-.47.65.21 1.21-.13 1.75-.69.02-.99-.47-1.21-1.25-.14-.69.11-1.19.23-1.82.8-.18.86 1.42 1.86.73.22-.42.39-.72.88-.55zM157.908 5.695c-.25 1.13-1.32.63-1.9 1.18-.14.13-1.28-.2-.42.88.23.29-.65.37-1.28.11-.26-.03-.32-.02-.49 0-.36.01-.62.01-.97-.03-.51.23-.93.42-1.52.34-.26-.15-.44-.26-.47-.6 1.58-1.36 3.48-1.92 4.92-3.39.3-.31.65-.38.97-.06.4.4.27.66-.19.87-.36.17-.19.5-.03.71.41.54.84-.18 1.38-.01z"/><path class="st0" d="M73.338 45.805c.23-.63.38-1.18 1-1.22.5-.03.51-.41.27-.94.14-.51-.96-1.85.61-1.24.48.18.43-.25.21-.59-.28-.44-.11-.74.29-1.06.93-.23 1.38.52 1.89 1.03.59.59-.17.67-.47.99-.23.19-.34.36-.38.68-.05.3-.1.49-.23.73-.91-.05-1.48.19-1.35 1.36.02.17.03.36-.02.52-.19.7-.33 1.62-1.13 1.54-.79-.07-.69-.96-.69-1.8zM87.968 47.105c-.66-.4-.96-.73-.06-1.07.87-.33 1.66-.79 1.94-1.96.11-.44.45-.84.9-.83.61 0 .26.54.34.88.21.96 1.11.19 1.68.89.15.25.14.33.1.53-.5.8-.74 1.8-1.83 1.64-.86.02-.76.86-.95 1.4-.2.57-.52.81-.93.56-.52-.32-.06-.67.1-1 .1-.21.2-.41.31-.61.2-.38.71-.8.32-1.21-.46-.48-.6.35-.91.54-.27.17-.6.17-1.01.24zM35.858 39.195c.09.05.1.23.09.31-.14.47-.37.73-.83.8-1.01-.32-1.82.32-2.8.38-.44-.11-.78-.23-1.21-.36-.36-.59-1.23-.98-.77-1.77.33-.57.94-.65 1.64-.6.78.06 1.54-.03 2.35.09s1.04.62 1.53 1.15zM49.958 15.305c-.48-.39-.86-.8-1.29-1.32 1.89-1.7 4.19-2.26 6.38-3.11.51-.2.91-.28 1 .66-.61.61-1.23 1.1-1.86 1.59-.13.1-.37.25-.39.22-1.63-2.33-1.89 1.48-3.19.96-.42-.18.02.93-.65 1zM104.248 9.465c-.23.03-.66-.1-.66-.18.11-1.27-.37-2.01-1.47-2.4.51-1.43 1.16-1.41 2.02-.41.31.37.95.53 1.21-.05.3-.67-.3-.69-.68-.82-.13-.04-.29-.19-.32-.32-.13-.65.32-1.24.67-1.19.72.1 1.24-1.31 1.95-.33.14.19.83 1.09-.39.98-1.25-.11-.2.68-.18 1.29.02.45-.03.67-.2.95-1.22.25-1.9.94-1.95 2.48zM167.338 11.445c.08-.37.55-.75.56-.61.19 1.83 3.1 1.4 2.25 4.07.75-.63.45-1.77 1.36-2.1.11-.03.26.01.33.03-.19 1.47-.34 3.03-2.28 2.84-.48-.47-.8-.95-.44-1.69-.39.31-.17.88-.53 1.26-.51.02-.9-.11-.91-.74 0-.17.07-.34.1-.52-1.84-.48-.52-1.58-.44-2.54zM70.898 8.415c-1.42 1.46-3.1 1.17-4.87 1.16.19-2.28 1.61-2.95 3.46-3.2.53.65.9 1.35 1.41 2.04zM119.898 43.085c.11.08.26.09.33.09.35.45.54.93.43 1.62-.92 1.73-1.83 3.26-3.82 2.36-.08-.04-.2.02-.29.05-.37.1-.17 1.32-.87.62-.1-.1.3-.85.56-1.36.76-.83 1.81-1.16 2.15-2.48.25-.27.42-.44.65-.71.25-.3.49-.36.86-.19zM115.598 10.695c.1 1.19.39 1.75 1.42.85.35-.3.76-.63 1.34-.19.07.82.97.87 1.02 1.71-1.36.88-2.77.61-4.25.24-.41-.2-.75-.25-1.08-.37-.23-.09-.47-.26-.47-.6-.01-.47.29-.55.6-.57.5-.04.8-.43 1.13-.96.1-.12.16-.12.29-.11zM86.128 7.475c-.11-.28-.11-.55-.11-.95-.12-.27-.16-.44-.07-.74.31-.22.55-.33.9-.45.28-.01.45.04.65.26.04.64.11 1.08.72 1.18.76.12 1.19.74 1.49 1.65-.02.64.13 1.18-.3 1.95-.71-1.59-1.86-2.37-3.28-2.9zM92.808 44.965c.07-.15.12-.41.22-.44 1.12-.39 1.66-1.03 1.39-2.56-.13-.73.47-.44.82.04.5-.02.76-.84 1.54-.32-.87.51-.99 1.35-.89 2.43-.91-.05-.75.99-1.13 1.39-.44.45-.19 1.31-.93 1.56-.41-.34-.54-.8-.75-1.35-.08-.26-.11-.42-.19-.66-.08-.1-.08-.09-.08-.09zM190.448 11.245c-.36.15-.65.3-.89.76-.32.08-.57 0-.65-.49.07-.21.12-.32.14-.54.03-.14.06-.19.02-.21-.07.08-.07.14-.13.25-.49 0-.66-.28-.67-.86.09-.19.14-.3.07-.48l-.05-.05c.05-.71-.17-1.76 1-1.04.33.21.64.34.91-.15.23-.41.61-.83.98-.38.36.45.36 1.12-.14 1.54-.48.38-.63.88-.59 1.65zM17.808 45.045c-.05-.64-.67-1.27.13-1.81.94-.68 1.77-1.49 2.87-.56.08.32.16.5.28.77-.31.5-.1.76.27 1.09.17.24.27.39.37.65-.7 1.62-1.15.45-1.75-.17-.79-.55-1.42.1-2.17.03zM34.598 21.065c.13.27.12.53.11.91-.85.61-1.45 1.69-2.68 1.53-.21-.63.68-.98.32-1.55-.37-.58-.78.27-1.24.22-.09-.39-.18-.78-.26-1.17-.14-.64.24-.86.55-.52.95 1.01 2.06.34 3.2.58zM82.628 49.735c.31-.22.65-.3 1.07-.44.31.89-.43 2.32 1.11 2.61.07.01.14.16.18.26.11.36.11.81-.16.97-.7.4-1.42.79-2.18.97-.38.09-.32-.64-.48-.98-.05-.11-.01-.36.07-.45 1.23-1.43 1.23-1.42.39-2.94zM10.198 34.935c-.49.87.48 2.27-.69 2.94-.38.22-.65.9-1.14.47-.37-.33-.25-.81.06-1.22.3-.41-.3-.52-.27-.97.16-.4.42-.67.48-1 .32-1.53.83-1.24 1.56-.22zM186.438 9.415c-.44.3-.05.9-.59 1.39-.11-1.77-2.19-1.56-2.2-3.57.9-.89 2.05-.48 2.43.74.14.42.23.87.36 1.44zM177.798 27.265c.53-1.03 1.74-.84 2.25-2.07.13-.31 1.68.15 1.44 1.78-.66.12-1.26.13-1.88.59-.53.39-1.24.57-1.81-.3zM195.718 20.075c.14-.22.29-.31.52-.44.19.76.71 1.04 1.29.96.63-.09 1.22-.49 1.13.81-.06.94.32 2.1-1.27 1.78-.47-.36-.7-.83-1.03-1.34.01-.75-.56-1.07-.64-1.77zM111.608 42.535c.72.64 1.16 1.52 2.37 1.1.91-.32.5 1.36 1.31 1.69-.21.96-.81 1.18-1.72.9 1-1 .75-1.55-.37-1.59-1.18-.05-1.66-.75-1.59-2.1zM76.748 3.535c0 .64-.02 1.28-.01 1.92 0 .56-.09 1.09-.64 1.21-.57.12-.75-.37-.92-.9-.14-.43-.38-.81-.59-1.33.14-.26.29-.39.54-.54.46-.47.85-.79 1.52-.45.09.09.09.09.1.09zM96.538 7.685c-.38.13-.67-.03-.91-.48.3-1.64 1.91-1.13 2.56-2.21.08-.14.71-.05.64.43-.1.65-.12 1.45-.91 1.65-.46.12-1.05-.25-1.38.61zM60.358 11.605c-.97.28-.46 1.16-.58 1.9-.92-.35-2.02-.11-2.52-1.59 1.02-.12 1.99-1.05 3.1-.31zM123.938 42.715c.05.63.63 1.27-.18 1.79-.48.09-.91.09-1.47.08-.41-.25-.79-.27-1.12-.64-.11-.26-.11-.42-.01-.67 1.1.65 1.76-.95 2.78-.56z"/><path class="st0" d="M70.968 8.525c-.76-.4-1.62-.63-1.35-2.02.59-1.35 1.05-.84 1.53.12.1.42.33.52.56.77.06.14.06.2.07.36.05.15.09.2.07.34-.31.2-.54.31-.88.43zM17.728 45.055c.69-.07 1.26-1.73 2.11-.2.02.13-.02.17-.06.21-.58.57.58 1.63-.18 1.8-.62.13-1.37-.56-1.86-1.4-.01-.19-.01-.26-.01-.41zM118.328 43.885c.42 1.78-.69 2.13-1.9 2.5-.13-.25-.14-.5-.16-.88.44-.97.95-1.72 2.06-1.62zM174.668 10.605c.02 1.69-.8 2.28-2.07 2.32.11-.72.89-.9.67-1.96-.14-.68.61-1.41 1.4-.36zM64.998 9.425c-.83.49-1.69.86-2.66 1.25-.19-.49-1.18-.16-.84-.99.2-.49.72-.55 1.06-.34.84.52 1.6-1.3 2.44.08zM92.078 6.745c.11.39.11.77.11 1.31-.04.25-.11.36-.11.47.01.6.03 1.23-.66 1.28-.74.06-.29-.87-.73-1.25.17-.87.29-1.79 1.39-1.81zM93.028 45.245c.5.45.69.96.68 1.7-.27.18-.53.25-.86.4-.35.54-.75.25-1.19.4-.37.06-.63-.01-.71-.52.96-.13 1.1-1.26 1.77-1.85.14-.11.19-.15.31-.13zM159.828 36.895c.38-.69.8-1.26 1.31-1.97.42.95.2 1.78.24 2.71-.62.19-1.25.29-1.55-.74zM85.898 5.675c.11.16.11.32.11.6-1.06.33-2.1.44-3.07-.47.94-1.27 1.9-.02 2.96-.13zM81.868 2.825c.04.8.41 1.71-.41 2.4-.39-.35-.66-.75-.97-1.25.06-.38.16-.66.27-1.05.33-.1.65-.1 1.11-.1zM32.238 40.815c.69-1.33 1.69-.8 2.7-.6-.48.06-.79.63-1.24.85-.5.25-1 .66-1.46-.25zM11.408 32.795c-.57.93.83 1.75.26 2.69-.57.03-.38-.84-.97-.88-.25-.82-1.05-1.96.71-1.81zM140.828 10.645c-.1-.69-.3-1.46.47-2.03.8.07 1.22.56 1.26 1.57-.64-.46-1.14-.05-1.73.46zM108.778 6.045c.02.2-.15.58-.16.58-.85-.48-1.4.46-2.17.5-.22-.33-.19-.6-.1-.98l.06-.11c.74-.48 1.5-.58 2.37.01zM129.958 43.255c-.15-.38-.23-.66-.35-1.05.12-.42.27-.74.5-1.11.5-.04.7.22.69.82-.16.63.43 1.74-.84 1.34zM182.278 8.165c.19.51.25 1.02.34 1.82-.82-.51-1.5-.92-2.27-1.4.46-.72 1.18-.25 1.93-.42zM13.278 44.595c.39.18.43.49.44.93-1.18.96-1.32.88-1.58-.89.4-.05.71-.04 1.14-.04zM76.738 3.395c-.43.24-.86.35-1.41.47-.16-.85-.19-1.7.97-1.79.49.3.43.76.44 1.32zM199.438 21.895c-.02-.31-.03-.48-.02-.66.02-.55.05-1.14.67-1.13.32 0 .6.43.42.75-.26.46.09 1.76-1.07 1.04zM47.538 14.985c.54.05.98.14 1.28.72-.61.34-1.21.67-1.92 1.02-.23-.11-.28-.27-.21-.57.29-.46.52-.81.85-1.17zM109.938 40.335c.32-.98 1.03-.93 1.69-.48.44.3 1.01.79.19 1.52-.34-.99-1.03-1.07-1.88-1.04zM196.208 21.755c.73.04 1.06.43 1.05 1.3-.46.13-.92.18-1.34-.12-.79-.57-.38-.88.29-1.18zM193.428 18.455c.26.31.42.53.66.8.07.32.06.58.04.98-.67-.17-1.39-.35-1.84-1.21.19-.67.55-.83 1.14-.57zM98.298 42.585c.59-.42 1.16-1.67 1.61.1.19.4.14.65-.19.86-.38-.42-.76-.37-1.24-.38-.11 0-.1.01-.1.01-.11-.13-.15-.29-.08-.59zM158.238 34.245c.64.64.29 1.44.35 2.31-.4-.02-1.35.72-.93-.78-.03-.54-.04-.95.25-1.43.13-.09.19-.09.33-.1zM166.918 33.225c.51-.09 1.49.94 1.06-.81-.14-.59.18-.72.52-.04.6 1.87-.19 1.9-1.48 1.44-.21-.23-.21-.38-.1-.59zM111.178 5.625c.06.46.7 1 .15 1.36-.6.4-.81-.3-1.1-.75-.09-.15-.35-.15-.66-.24.25-1.21 1 .04 1.61-.37z"/><path class="st0" d="M91.658 47.825c.16-.44.55-.35 1.02-.39.16.47.09.91-.14 1.32-.26.48-.67.66-1 .32-.41-.43.08-.66.32-.91.03-.03.08-.11.08-.12a.872.872 0 0 0-.28-.22zM156.138 34.765c.23-.15.46-.15.81-.16.52.21.65.5.24 1.01-.17.42-.01 1.12-.52.96-.71-.23-.44-1.07-.53-1.81zM85.898 47.015c.14.61.1 1.1-.43 1.47-.32.06-.53.06-.86.07-.12-.27-.12-.54-.13-.95.28-.85.75-.93 1.42-.59zM7.388 37.105c.22.97.06 1.78-1 2.1-.15-.93.02-1.73 1-2.1zM111.118 44.125c.17.43.34.86-.02 1.01-.47.19-.67-.39-.95-.69-.18-.19-.38-.51-.1-.73.39-.32.77-.19 1.07.41zM186.328 5.495c.22.16.34.26.46.37.3.27.89.37.7.98-.12.39-.59.28-.77-.01-.26-.4-1.39-.45-.39-1.34zM166.638 34.505c.06.95-.23 1.59-1.11 1.84-.32-.05-.46-.21-.57-.55a1.2 1.2 0 0 1 .04-.46c.2-.36.4-.57.68-.85a.95.95 0 0 1 .59-.17c.16.05.23.08.37.19zM199.988 16.495c.43.56.51 1.09.05 1.54-.16.15-.43.07-.5-.17-.15-.53-.35-1.12.45-1.37zM57.248 41.845c.04-.15.13-.22.27-.37.65-.1 1.22 0 1.6.8-.12.14-.25.15-.5.18-.32.21-.56.28-.93.1-.21-.26-.3-.44-.44-.71zM150.778 7.485c.19.16.28.34.4.6-.53.22-.98 1.04-1.77.43.06-.88.79-.71 1.37-1.03zM81.478 49.255c-.1-.52-.14-1.25.41-1.25.61 0 .45.89.7 1.47-.32.02-.66-.1-1.11-.22zM29.218 41.875c.04-.46.27-.8.09-1.24-.12-.3-.06-.6.29-.61.41-.01.46.36.5.85-.45.23-.12 1.24-.88 1zM99.618 43.665c.08-.29.18-.46.29-.74.23-.11.45-.11.79-.11.1.93.04 1.79-1.08.85z"/><path class="st0" d="M165.018 35.615c.18.25.26.41.36.66-.1.48-.32.74-.79.83-.26-.2-.42-.42-.66-.67-.03-.85.43-.96 1.09-.82zM121.158 43.205c.08.12.08.28.08.56.18.36.22.64.07 1.06-.21.12-.35.11-.59.1-.34-.47-.45-.96-.41-1.62.25-.02.5.18.85-.1zM78.418 50.825c.47-.65.71-.33.91.15.11.28.17.6-.16.68-.46.12-.75-.15-.75-.83zM43.268 16.805c-.21 1.17-.82.05-1.36.28.11-1.5.71-.78 1.36-.28zM157.198 35.685c-.03-.3.15-.59-.11-1 .13-.4.4-.44.79-.43.06.42.02.83-.1 1.33-.21.09-.34.1-.58.1zM191.268 11.815c.16.51.23 1 .31 1.61-.83-.14-.81-.77-.82-1.5.13-.14.27-.14.51-.11zM100.728 6.735c.09.73-.25 1.08-.98 1.08-.13-.77.25-1.06.98-1.08zM46.668 15.995c.09.2.1.36.11.63-.36.06-.73.01-1.18-.13.16-.65.47-.92 1.07-.5zM161.548 9.245c-.46-.65-.99-1.36.37-1.43.1 0 .11.18.11.27v.1c-.31.27 0 .83-.48 1.06z"/><path class="st0" d="M121.328 44.955c-.1-.26-.1-.53-.1-.92.35-.11.73-.21.91.43-.21.23-.46.36-.81.49zM192.518 7.845c.1.25.1.51.1.9-.21.18-.48.48-.59.05-.09-.38-.05-.79.49-.95zM158.928 5.175c-.22.23-.46.36-.8.5.04-.47-.07-1.43.8-.5zM87.608 5.615c-.24 0-.41-.06-.63-.2.09-.35.3-.49.56-.38.22.09.28.28.07.58zM49.038 43.175c-.09-.4-.18-.87.44-1.05.07.39.13.85-.44 1.05zM57.588 42.595c.22-.12.45-.13.8-.13-.04.76-.31.99-.8.13zM71.768 7.365c-.3.01-.86.31-.65-.56.36-.03.59.07.65.56zM42.258 43.905c.01-.4.25-.64.71-.75.1-.02.11.15.11.23-.14.44-.42.5-.82.52zM175.848 11.055c-.02.22-.11.52-.21.53-.33.01-.29-.34-.33-.71.15-.04.31.04.54.18zM85.318 50.745c.18.09.28.25.41.51-.28.07-.65.13-.41-.51zM176.018 27.095c-.04-.32-.05-.74.47-.43-.09.2-.23.31-.47.43zM127.938 6.075c.07.33-.03.6-.47.64-.04-.3.06-.58.47-.64zM166.778 34.525c-.13.06-.19.06-.35.04-.31-.51-.14-.76.43-.76.11.08.11.08.12.08-.05.2-.09.39-.2.64zM131.428 42.225c.12-.11.25-.11.48-.12.04.19.03.47-.09.54-.19.12-.32-.09-.39-.42zM12.698 31.395c.03.2-.02.4-.15.65-.12-.2-.41-.53.15-.65zM71.848 8.145c-.07.03-.07-.13-.07-.21.05-.09.11-.09.25-.09.05.12-.01.21-.18.3zM96.828 8.085c-.05.02-.14-.04-.28-.19.06-.02.15.05.28.19zM89.958 36.665c-.67-.41-1.52-.61-1.29-1.58.21-.86.99-.87 1.68-.84.86.03 1.74-.13 2.55.36.69.41.71.88.08 1.42-.88.73-1.87.84-3.02.64zM97.238 23.895c.45-.98 1.43-1.14 2.27-1.37 1.59-.44 2.1.16 2.22 2.33-.77.58-1.58 1.08-2.63.52-.35-.4-.78-.49-1.01-1.02-.19-.43-.46-.46-.85-.46zM112.488 26.295c-.51 2.01-1.85 3.12-3.29 4.25-.35.12-.68.12-1.13.12-.35-.27-.58-.54-.58-1.09 1.1-1 2.19-1.84 3.08-3 .46-.59 1.14-.76 1.92-.28zM86.008 46.955c-.46.14-.92.08-1.43.46-.2-.14-.42-.39-.38-.51.36-.97 1.57-1.96-.18-2.78-.23-.11-.04-.55.17-.73.28-.24.55-.22.82.07.85.91 1.17 2.03 1 3.49zM80.668 44.495c.64-.41.79.54 1.31.42.37-.09 1.1-.68 1.07.12-.04.97-1.1 1.32-1.75 1.81-.59.44-.49-.47-.57-.84-.09-.47-.95-.86-.06-1.51zM90.138 29.585c.01-.88.62-1.03 1.22-1.04.69-.01 1.2-.53 1.94-.72.55.83.28 1.66-.22 2.2-.53.58-.84-.32-1.23-.59-.57-.38-1.07-.04-1.71.15zM120.808 40.505c-.62.7-.9-.22-1.37-.26-.37-.03-.41-.47-.24-.83.2-.42.51-.62.86-.25.32.35.75.63.75 1.34zM117.598 40.035c1 .83.22 1.34-.21 1.89-.06.08-.37-.04-.52-.15a.474.474 0 0 1-.11-.62c.22-.38.48-.74.84-1.12zM101.408 40.905c.05.19.05.25.04.4-1.1-.09-1.1-1.15-1.11-2.01-.01-.63.63-.36.81.49.07.34.15.67.26 1.12zM126.798 43.035c-.24.23-.49.32-.83.46.19-.47-1.1-.83-.25-1.32.44-.25 1.04-.16 1.08.86zM91.408 32.005c-.35.42-.69.61-.96.16a.653.653 0 0 1 .25-.9c.52-.28.74.05.71.74z"/><path class="st0" d="M97.968 24.305c.43.17.87.26 1.01.9-1.5.11-1.5.11-1.01-.9zM93.838 26.035c-.2-.89.28-1.22 1.02-1.42.03.27-.04.56-.16.95-.06.23-.11.33-.27.44-.21.03-.35.03-.59.03zM78.368 43.705c.14.52 0 .9-.34 1.05-.21.1-.32-.19-.33-.43-.02-.47.11-.79.67-.62zM107.548 29.525c.19.36.29.64.4 1.04-.32.11-.65.11-1.11.11-.05-.29.03-.57.15-.97.15-.24.29-.29.56-.18zM119.998 43.035c-.23.13-.46.14-.8.14-.08-.42-.21-.98.37-1 .36 0 .41.39.43.86zM104.408 26.535c-.07-.29.02-.39.21-.35.04.01.1.08.1.12.03.22-.07.32-.31.23z"/><path class="st0" d="M94.398 26.115c-.02-.19.04-.29.19-.4.24.09.37.25.21.47-.04.07-.23.01-.4-.07zM81.498 39.775c-.25.08-.34-.02-.3-.24.01-.05.07-.11.11-.12.19-.04.27.07.19.36zM88.888 30.305c-.08-.31 0-.59.42-.68.08.3.01.59-.42.68zM62.238 18.405c-1.6-.15-2.98.47-4.12 1.63-1.74 1.78-4.09 1.93-6.01 3.22-.74.5-.65-.33-.7-.83-.03-.33.07-.79-.34-.86-.36-.06-.49.34-.63.65-.29.61-.47 1.36-1.39 1.31.26-2.05 1.31-2.82 3.02-2.51 1.79.32 3.41-.11 4.52-1.96.29-.48.66-.9 1.13-.74 1.6.56 2.75-.42 3.92-1.38.17-.14.36-.23.54-.34.48-.28.94-.25 1.16.37.24.67-.2.77-.64.89-.16.05-.29.28-.46.55zM85.998 11.195c.52-.3.82-.48.1-.9-.75-.45-1.5-.95-.53-2.11.99.84 1.99 1.6 2.2 3.08.1.69.27 1.43-.23 2.01-.41.48-.85.11-1.26-.11-.87-.46-.24-1.22-.28-1.97zM90.578 14.215c.63-.36.7.01.6.48-.06.27-.26.57-.54.45-.41-.16-.26-.52-.06-.93zM96.258 9.685c.09-.2.23-.31.47-.44.04.33.06.75-.47.44zM87.128 16.405c-.13.27-.25.27-.36.08a.248.248 0 0 1 0-.17c.11-.18.24-.18.36.09zM59.848 35.625c-.25-.7-.49-1.42-.43-2.21.05-.65-.22-1.05-.82-.9-.57.14-.76.57-.45 1.19.57 1.18.18 1.63-.88 1.62-.78-.01-1.36.24-1.09 1.35.4 1.65-1.27.87-1.6 1.82-.6.43-.54 1.17-.93 1.74-.91-.01-1.62.2-2.26.93-.59.69-1.25.65-1.78-.39.09-.11.23-.11.47-.11.32-.83 1.6-.7 1.37-2.03-.03-.27-.03-.43-.03-.71 1.27-1.4 1.9-2.93 1.28-5.01-.05-.11-.05-.29-.05-.38-.15-.23-.33-.36-.35-.7.67-.86.9-1.98 1.84-2.47.5-.26.25-.81.02-1.23-.33-.59-.68-1.16-.99-1.77-.42-.8-.18-1.4.55-1.66 1.22-.42 2.06-1.6 3.13-2.17 2.04-1.1 4.22-1.9 6.4-2.54 1.07-.31 2.2.98 3.48.05.54-.39 1.41 1.51.88 2.31-.94 1.41-1.39 3.25-2.98 4.14-.79.44-1.41 1.54-.26 2.57.27.24.34.58.34 1.09-1.66.82-1.97 2.85-2.98 4.2-.53.7-1.12.97-1.88 1.27z"/><path class="st0" d="M52.598 32.935c.78.35 1.55.4.66 1.96-.52.91-.3 2.45-1.74 2.91-.61-.53-.8-1-.29-1.8.56-.88.89-1.96 1.37-3.07zM17.178 28.495c.38-.98-1.37-1.5-.61-2.31.46-.5 1.48-.05 2.18-.49.81-.52 1.17-.04 1.41.93 0 .66.15 1.12.45 1.55.22.32.13.66-.17.87-.38.26-.5-.18-.79-.46-.58-1.56-.67-1.59-1.84-.46-.25.15-.4.24-.63.37z"/><path class="st0" d="M17.798 28.275c.06-.96.48-1.72 1.21-1.66.31.03.85.89.57 1.79-.58.08-1.16.27-1.78-.13zM51.298 38.555c.8-.01 1.27.09.61 1.02-.42.58-1 .71-1.64 1.05-.12-.89.43-1.45 1.03-2.07zM17.708 32.755c-.41-.75-1.23-1.19-.68-2.38.43.69.88 1.27 1.2 1.94.18.39.15.88-.52.44zM47.388 42.255v-.41c.24-.21.47-.33.8-.46.19.6.51 1.33-.18 1.69-.45.24-.6-.23-.62-.82zM52.228 31.745c.18.18.26.35.38.62-.25.2-.53.32-.82.41-.3.09-.67.61-.9.05-.25-.6.33-.72.73-1.03.23-.05.37-.05.61-.05zM49.668 39.055c-.25.08-.34-.02-.3-.24.01-.05.07-.11.11-.12.19-.03.27.08.19.36zM155.548 33.405c-1.9.19-3.86.5-5.32-1.47-.31-.42-.02-.43.28-.55.62.11 1.16.24 1.82.36.34-.24.49-.52.62-.84.59-1.49.84-1.5 1.71 0-.03.29-.02.45-.02.72.09.22.14.35.12.59-.08.19-.15.25-.24.27-.09.02-.06.02.15-.09.16-.16.26-.23.47-.29.46.29.38.75.41 1.3zM163.608 10.765c.3-.52.66-.63.84.01.24.85.69.32 1.17.29-.56 1.39-1.2 2.78-1.9 4.15-.14.28-.43.6-.69.64-.43.07-.28-.49-.42-.75-.76-1.49-.55-2.41.99-2.89.89-.28.33-.87.01-1.45zM191.428 14.355c.83-.46 1.37-1.67 2.45-1.53.53.07 1.46-.4 1.44.68-.02.78.99 1.42.34 2.01-.56.52-1.35.09-2.04-.29-.86.12-1.6 0-2.19-.87z"/><path class="st0" d="M154.728 31.035c-.61-.62-1.19-2.2-1.4.16-.04.43-.34.52-.77.54-.21-.95-.61-1.98.56-2.53.84-.4 1.58-.5 2.23.36.22.3.76.37.65.88-.14.67-.7.57-1.27.59zM150.368 28.815c-.38-.32-.67-.73-.96-1.12-.17-.23-.39-.52-.22-.77.6-.85 1.5-1.19 2.35-1.52.75-.29 1.24.27 1.51 1.22-1.73-.76-2.17.68-2.68 2.19zM193.538 18.415c-.35.21-.71.3-1.17.44-1.16-.21-1.27-1.39-1.99-2.26.91.06 1.6.11 2.41.15.34.52.83.88.75 1.67zM166.078 31.185c.12-.25.26-.33.35-.46.3-.44.58-1.11 1.15-.49.52.57 0 .89-.34 1.19-.22.2-.26.47-.26.89-.21.34-.44.39-.81.22-.11-.44-.11-.82-.09-1.35zM172.598 15.625c.08-.31.15-.57.3-.66.51-.31.76-1.2 1.5-.97.23.07.25.44.09.57-.57.49-.75 1.84-1.89 1.06zM164.898 33.975c-.53-.09-.96-.1-1.52-.11.41-1.33 1.64-.39 2.51-1.05.4.38.28.72-.05 1.15-.34.21-.58.22-.94.01zM185.288 17.425c.02-.48.22-.66.5-.64.42.03 1.09-.28 1.14.46.05.81-.64.53-1.06.55-.17.01-.36-.15-.58-.37zM160.748 34.145c-.94.98-1.06-.17-1.47-.84.59-.2 1.17-.11 1.47.84zM168.568 15.415c-.08-.64.01-1.15.37-1.62.31.52.46 1.04.5 1.75-.27.08-.54.02-.87-.13zM173.018 26.235c.27-.12.43-.03.51.19.02.06-.04.23-.09.25-.26.06-.47.01-.42-.44zM154.698 32.455c-.09-.15-.09-.31-.07-.59.17-.06.34 0 .55.15-.1.2-.24.31-.48.44zM158.588 32.075c.02.07-.13.05-.2.05-.02-.13.03-.28.2-.05zM107.708 29.505c-.21.1-.35.1-.59.1-1.35-1.29-1.13-3.36.38-4.27.33-.2.63-.38.86-.71.54-.79 2.53-1.47.14-2.52-.28-.12-.28-.61-.09-.95.22-.4.57-.59.92-.33.49.36 1.17.34 1.54.65 1.59 1.34 2.77-.18 4.09-.62.32-.11.64-.45.6-.94-.05-.51-.43-.58-.79-.67-.77-.17-1.86.53-2.15-1-.32-1.64.73-2.56 1.49-3.59.3-.41.99-.43.96-1.35 1.35-.4 2.71-.1 4.2-.13.31.21.48.44.67.63.27.26.69.42.55.95-.12.47-.5.5-.87.57-1.08.23-1.69 1.75-.91 2.65.74.85.73 1.4.15 2.24-.19.27-.54.75-.07 1.07.38.26.81.1 1.09-.34.21-.33.51-.65.59-1.03.45-2.15 2.15-2.24 3.48-2.62.84-.24 1.38 1.12 1.54 1.94.19.99-.73.7-1.23.72-.35.02-.7-.22-1.05-.2-.59.03-1.13.28-1.28 1.03-.18.87.5.77.89 1.08.86.68 2.27.14 2.74 1.82.14.49 1.14.33 1.72.06.54-.26.48-.82.29-1.37-.2-.58 0-.84.53-.98 1.79-.49 3.03-2.1 4.59-3.08.69-.43 1.36-.77 2.1-.98.66-.19 1.13.01 1.28.8.08.42.16.85.47 1.08.45.34.77 1.54 1.42.76.67-.8-.37-.97-.71-1.35-.45-.51-.78-1.12-.37-1.71.43-.62.99-1.28 1.8-1.11.5.1 1.08.26 1.42.64 1.23 1.41 2.71 1.47 4.28 1.41 1.32-.05 2.16 1.04 2.21 2.71.03.99-1.47 2.62-2.41 2.61-.46 0-.9-.21-.91-.75-.02-1.5-1.11-1.32-1.86-1.64-.33-.14-.65.02-.53.53.4 1.69-.86 1.82-1.65 2.18-.7.32-1.14.64-1.29 1.52-.22 1.33-.91 1.53-1.94 1.06-.9-.41-1.76-.98-2.87-1.1-.27-.05-.4-.13-.57-.37-.33-1.13.47-1.63.98-2.57-1.7 1.4-3 2.59-3.77 4.75-.61 1.73-2.33 2.92-4.04 3.52-.69.24-1.42.11-2.06-.42-1.05-.87-2.53-.86-3.26-2.44-.44-.93-1.04-1.7-1.13-2.84-.08-1.02-.58-1.53-1.56-1.49-1.3.06-2.72-.47-3.59 1.41-.37.44-.8.59-1.14 1.07-.15.26-.24.44-.35.71-1.11-.13-1.98.36-2.5 1.4-.57 1.07-1.38 1.5-2.43 1.8z"/><path class="st0" d="M113.878 24.695c.48-1.58 1.19-2.73 2.83-2.01.35.15.69.12 1.05-.01 1.25-.45 1.7.51 1.9 1.61.42 2.25.96 4.28 3.41 4.41.15.01.33.26.43.44.55.99 1.52 1.13 2.19.74 1.64-.96 3.64-1.85 4.06-4.13.43-2.37 2.49-2.57 3.4-4.2.16-.29.72-.28.94.16.22.45-.04.8-.37 1.03-.55.37-1.06.76-1.05 1.74-1.1.38-1.73 1.19-2.12 2.37-.24.71-.56 1.41-1.19 1.97-1.59.81-2.78 2.3-4.6 2.58-.33-.26-.59-.59-.86-.59-2.96.07-4.03-3.24-6.28-4.68-.72-.1-.97.43-1.16.99-.23.66-.65 1.05-1.19 1.3-.5.23-1.03.82-1.51.09-.47-.7-.22-1.33.39-1.79.24-.18.29-.47.3-.91.06-.6-.23-.81-.57-1.11z"/><path class="st0" d="M129.378 28.945c.45-1.34 1.06-2.61 1.55-3.93.38-1.04.99-.38 1.63-.41.21.04.29.1.39.28.45 1.44.54 3.1 2.35 3.1.35 0 .65.51.76 1.13-1.72 1.19-3.47 1.15-5.26.35-.43-.19-.88-.31-1.42-.52zM138.028 28.825c-.63-.21-.69-.6-.51-1.23.37-1.32 2.56-2.73 3.63-2.11.79.45 1.69.59 2.41 1.05 1.25.8 2.02.18 2.92-.8.68.77 1.19 1.63.23 2.52-1.38 1.28-2.34 1.31-3.15.03-.44-.7-.82-1.05-1.48-.45-.64.57-1.38.31-2.08.33-.68.02-1.35-.04-1.97.66zM117.538 26.155c1.38.66 2.91 1.23 3.56 3.11.24.68.73.71 1.26.69.9-.02 1.67.32 2.26 1.3-.87-.13-1.73-.45-2.66.03-.67.34-1.14-.2-1.59-.71-1.11-1.28-2.04-2.72-2.83-4.42zM150.598 23.715c.05-.69-.19-1.48.56-1.55.74-.07 1.54-.3 2.24.24.07.06.15.21.14.3-.09.74-.7.88-1.13.99-.58.14-1.14 1.51-1.81.02zM158.338 9.135c-1.04-.69-.41-1.39.04-1.77.57-.49.53.43.73.72.84 1.2-.51.63-.77 1.05zM113.718 24.615c.42.26 1.78-.64.82 1.01-.53-.33-.98-.17-1.53.04-.1-.54.11-.92.71-1.05zM148.558 30.825c-.62.19-1.1.08-1.23-.62-.05-.27.23-.52.49-.54.64-.02.94.32.74 1.16zM152.798 7.945c.2-.56.6-.46 1.08-.47.16.06.21.12.34.27.08.08.07.08.07.08-.24 1.98-.91.47-1.49.12zM109.078 18.085c.23-.41.38-.72.6-.97.32-.37.74-.5 1.12-.2.35.28.31.77.1 1.12-.34.58-.71 1.22-1.43 1.18-.61-.04-.62-.49-.39-1.13zM111.708 10.765c.38-.78.83-.18 1.38-.11-.18 1.95-.79.66-1.38.11zM66.558 41.645c-.28.55-.67.44-1.14.46-.15-.48-.01-1.16-.78-.85-.55.21-.85.05-.87-.79.98-.14 1.96-.14 2.93-.16.33-.01.8-.38.91.23.12.65-.5.39-.75.6-.12.08-.19.25-.3.51zM57.708 39.945c-.4-.57-.64-1.15.08-1.72.94-.07 1.84.72 2.67-.53-.16 1.26-.16 1.26-2.75 2.25zM71.378 40.265c.03.38-.06.71-.14 1.04-.07.32-.13.65-.19.98-.61-.02-.52-1.09-1.29-.89-.26-.01-.4-.01-.66-.02.04-2 1.15-1.45 2.28-1.11zM60.358 39.665c.56.05.97.25.77.86-.16.5-.53.9-1.06.79-.35-.07-.77-.22-.84-.65-.14-.91.69-.63 1.13-1zM73.368 43.395c-.21.48-.4 1.1-.84.89-.37-.17-.73-.65-.87-1.09-.13-.42.44-.3.69-.64.56-.12.99-.03 1.02.84zM129.248 7.965c.67-.29 1.23-.52 1.57-1.32.45-1.09 1.43.55 1.99-.81-.11 2.2-.03 2.27 1.35 1.38.13-.2.19-.29.3-.43.76-.1 1.21-.99 2.1-.75.24-.13.39-.19.65-.08.52.08.95.08 1.5.07.18.34.25.69.27 1.04.05.87 1.55 1.51.79 2.15-1.08.9-1.95 2.33-3.43 2.53-.05.01-.11.03-.15 0-1.38-.89-2.2-.18-3.18 1.06-.91 1.15-3.6-.41-4.36-2.25-.44-1.07-.72-1.99.6-2.59zM20.918 42.815c-1.05-.77-1.78.47-2.77.36-.16-1.01.8-1.17 1.1-2.02.86.39 1.71.7 2.68-.11.3.24.34.51.18.94-.39.39-.56.94-1.19.83zM21.438 44.485c-.44.12-.95.17-1.1-.44-.12-.47.28-.48.68-.52.21.29.31.57.42.96z"/><path class="st0" d="M22.148 42.105c-.11-.27-.11-.53-.11-.93.44-.06 1.01.01 1.04.56.05.54-.51.29-.93.37zM41.938 41.375c-.11-.27-.11-.53-.11-.92.44-.69.9-.55 1.06.05.2.73-.37.82-.95.87zM134.528 6.635c-.03.24-.09.33-.25.43-.12-.19-.15-.42-.21-.64-.1-.33-.26-.84.1-.87.52-.05.28.59.36 1.08zM137.298 5.915c-.13.11-.27.11-.51.11 0-.43.07-.97.51-.11zM154.268 7.735c-.07.05-.15-.02-.24-.19.07-.04.15.02.24.19zM93.068 45.245c.03.08-.11.08-.19.08-.07-.06-.07-.12-.08-.27.11-.06.18.01.27.19zM95.278 42.105c-.02.2.04.45-.22.47-.06 0-.13-.12-.19-.19.08-.09.17-.19.33-.28h.08zM165.578 33.875c.12.16.13.33.15.62-.02.44-.09.7-.48.81-.52-.25-.42-.72-.44-1.28.21-.14.44-.14.77-.15zM154.608 32.465c-.03.01-.06.03-.04.02l.04-.02zM193.798 13.825c.32-.22.57-.23.54.19-.01.17-.23.43-.37.44-.36.03-.35-.25-.17-.63zM115.048 27.315c-.32-.34-.34-.64.02-.82.1-.05.33 0 .39.09.24.41-.04.59-.41.73zM116.878 25.595c-.5-.05-.58-.29-.33-.66.13-.19.33-.28.5-.1.22.25.12.51-.17.76z"/><g><path d="m22.988 28.895-1.65 8.52h-1.26l1.62-8.52c.78-4.02-.78-5.67-3.21-5.67-2.34 0-3.9 1.62-4.8 4.5-.03.39-.09.78-.18 1.17l-1.65 8.52h-1.26l1.62-8.52c.78-4.02-.78-5.67-3.21-5.67-2.34 0-3.9 1.62-4.8 4.47l-1.86 9.72h-1.26l2.91-15.06h.96l-.24 2.1c1.05-1.56 2.58-2.43 4.53-2.43 2.19 0 3.9 1.08 4.35 3.42 1.05-2.19 2.79-3.42 5.13-3.42 3.09 0 5.19 2.19 4.26 6.87zM28.838 22.355h1.26l-2.94 15.06h-1.26l2.94-15.06zm.84-5.1h1.53l-.42 2.19h-1.53l.42-2.19zM45.398 23.435l-12.36 12.78h9.84l-.21 1.2h-11.55l.18-1.05 12.33-12.81h-9.45l.21-1.2h11.19l-.18 1.08zM60.968 22.355l-2.91 15.06h-.96l.27-2.31c-1.23 1.74-3.09 2.64-5.04 2.64-3.18 0-5.55-2.37-4.74-6.63l1.71-8.76h1.26l-1.68 8.7c-.66 3.57 1.2 5.49 3.69 5.49 2.19 0 4.38-1.5 5.28-4.44l1.86-9.75h1.26zM65.708 22.355h1.26l-2.94 15.06h-1.26l2.94-15.06zm.84-5.1h1.53l-.42 2.19h-1.53l.42-2.19zM78.758 22.205l-.24 1.23a5.39 5.39 0 0 0-.93-.09c-2.34 0-4.83 1.17-5.55 3.69l-2.01 10.38h-1.26l2.91-15.06h.96l-.24 2.04c1.26-1.5 3.36-2.25 5.31-2.25.36 0 .72.03 1.05.06zM79.508 31.655l.75-3.75c.75-3.75 3.09-5.88 6.78-5.88 3.96 0 6.18 2.46 5.46 6.09l-.72 3.72c-.75 3.78-3.06 5.91-6.72 5.91-3.96 0-6.27-2.49-5.55-6.09zm11.07-.15.66-3.36c.6-3.09-1.05-4.92-4.23-4.92-3.09 0-4.92 1.68-5.55 5.01l-.66 3.36c-.6 3.09 1.11 4.95 4.29 4.95 3.09 0 4.83-1.71 5.49-5.04zM115.988 28.115l-.72 3.69c-.75 3.81-3.24 5.94-6.78 5.94-2.22 0-4.02-.87-4.74-2.58l-1.77 9.15h-1.26l4.26-21.96h.99l-.18 1.98c1.14-1.53 2.85-2.31 5.1-2.31 3.51 0 5.82 2.46 5.1 6.09zm-5.28-4.89c-2.94 0-4.65 1.41-5.52 4.59l-.87 4.38c-.3 3 1.53 4.35 4.2 4.35 2.91 0 4.92-1.74 5.55-5.04l.63-3.33c.6-3.09-1.2-4.95-3.99-4.95zM118.838 31.655l.75-3.75c.75-3.75 3.09-5.88 6.78-5.88 3.96 0 6.18 2.46 5.46 6.09l-.72 3.72c-.75 3.78-3.06 5.91-6.72 5.91-3.96 0-6.27-2.49-5.55-6.09zm11.07-.15.66-3.36c.6-3.09-1.05-4.92-4.23-4.92-3.09 0-4.92 1.68-5.55 5.01l-.66 3.36c-.6 3.09 1.11 4.95 4.29 4.95 3.09 0 4.83-1.71 5.49-5.04zM144.128 22.205l-.24 1.23a5.39 5.39 0 0 0-.93-.09c-2.34 0-4.83 1.17-5.55 3.69l-2.01 10.38h-1.26l2.91-15.06h.96l-.24 2.04c1.26-1.5 3.36-2.25 5.31-2.25.35 0 .72.03 1.05.06zM147.058 31.955c-.6 3.15.39 4.26 2.88 4.26h1.2l-.21 1.2h-1.35c-3.15 0-4.53-1.53-3.81-5.19l1.68-8.67h-1.98l.21-1.2h2.01l.87-4.53h1.26l-.87 4.53h4.32l-.21 1.2h-4.35l-1.65 8.4zM164.818 14.315l-.21 1.2h-.9c-2.55 0-3.96 1.08-4.53 3.99l-.54 2.85h4.62l-.21 1.2h-4.65l-2.7 13.86h-1.26l2.7-13.86h-1.92l.21-1.2h1.92l.66-3.33c.63-3.27 2.49-4.71 5.76-4.71h1.05zM163.348 31.655l.75-3.75c.75-3.75 3.09-5.88 6.78-5.88 3.96 0 6.18 2.46 5.46 6.09l-.72 3.72c-.75 3.78-3.06 5.91-6.72 5.91-3.96 0-6.27-2.49-5.55-6.09zm11.07-.15.66-3.36c.6-3.09-1.05-4.92-4.23-4.92-3.09 0-4.92 1.68-5.55 5.01l-.66 3.36c-.6 3.09 1.11 4.95 4.29 4.95 3.09 0 4.83-1.71 5.49-5.04zM184.468 14.315l-4.5 23.1h-1.26l4.47-23.1h1.29zM187.708 22.355h1.26l-2.94 15.06h-1.26l2.94-15.06zm.84-5.1h1.53l-.42 2.19h-1.53l.42-2.19zM191.308 31.655l.75-3.75c.75-3.75 3.09-5.88 6.78-5.88 3.96 0 6.18 2.46 5.46 6.09l-.72 3.72c-.75 3.78-3.06 5.91-6.72 5.91-3.96 0-6.27-2.49-5.55-6.09zm11.07-.15.66-3.36c.6-3.09-1.05-4.92-4.23-4.92-3.09 0-4.92 1.68-5.55 5.01l-.66 3.36c-.6 3.09 1.11 4.95 4.29 4.95 3.09 0 4.83-1.71 5.49-5.04z"/><g><path d="m8.408 61.135-2.77 6.02h-.53l-.6-5.07-2.58 5.07h-.52l-.44-6.02h.52l.35 5.41 2.63-5.41h.47l.53 5.38 2.45-5.38h.49zM13.668 63.415l-.17.89h-4.31l-.11.52c-.24 1.25.49 1.97 1.68 1.97 1.1 0 1.81-.58 2.04-1.69h.53c-.28 1.43-1.25 2.19-2.58 2.19-1.55 0-2.48-1.01-2.21-2.45l.3-1.48c.3-1.52 1.32-2.36 2.7-2.36 1.48 0 2.4.97 2.13 2.41zm-.6.38.06-.32c.24-1.24-.44-1.97-1.61-1.97-1.13 0-1.92.67-2.17 1.99l-.06.3h3.78zM20.148 63.435l-.29 1.48c-.3 1.52-1.3 2.37-2.7 2.37-.9 0-1.62-.35-1.91-1.03l-.26.9h-.41l1.79-9.23h.5l-.76 3.95c.46-.58 1.13-.86 1.99-.86 1.42-.01 2.33.97 2.05 2.42zm-2.11-1.95c-1.15 0-1.83.54-2.18 1.76l-.37 1.93c-.06 1.13.66 1.63 1.68 1.63 1.16 0 1.97-.7 2.22-2.01l.26-1.33c.22-1.24-.5-1.98-1.61-1.98zM30.388 57.925l-1.8 9.23h-.38l.07-.8c-.44.61-1.15.94-1.99.94-1.43 0-2.38-.97-2.1-2.45l.29-1.48c.3-1.5 1.24-2.36 2.64-2.36.91 0 1.67.41 1.95 1.08l.8-4.16h.52zm-1.86 6.99.31-1.66c.17-1.12-.64-1.78-1.7-1.78-1.21 0-1.92.71-2.17 2.01l-.26 1.32c-.24 1.26.52 1.99 1.69 1.99 1.1.01 1.89-.64 2.13-1.88zM35.808 63.415l-.17.89h-4.31l-.11.52c-.24 1.25.49 1.97 1.68 1.97 1.1 0 1.81-.58 2.04-1.69h.53c-.28 1.43-1.25 2.19-2.58 2.19-1.55 0-2.48-1.01-2.21-2.45l.3-1.48c.3-1.52 1.32-2.36 2.7-2.36 1.48 0 2.4.97 2.13 2.41zm-.6.38.06-.32c.24-1.24-.44-1.97-1.61-1.97-1.13 0-1.92.67-2.17 1.99l-.06.3h3.78zM36.758 65.185h.49c-.24 1.06.55 1.63 1.8 1.63 1.06 0 1.74-.55 1.74-1.33 0-1.77-3.43-.78-3.43-2.73 0-1.08.96-1.75 2.28-1.75 1.5 0 2.4.76 2.12 2.08h-.5c.25-1.12-.5-1.62-1.64-1.62-1.03 0-1.75.47-1.75 1.24 0 1.58 3.43.61 3.43 2.73 0 1.07-.89 1.85-2.3 1.85-1.54-.01-2.54-.78-2.24-2.1zM43.718 61.135h.5l-1.18 6.02h-.5l1.18-6.02zm.33-2.04h.61l-.17.88h-.61l.17-.88zM50.728 61.135l-1.3 6.66c-.27 1.41-1.24 2.25-2.57 2.25-1.2 0-2.06-.62-1.99-1.58h.49c-.01.67.65 1.1 1.54 1.1 1.06 0 1.85-.74 2.07-1.96l.23-1.18c-.44.56-1.14.86-1.94.86-1.43 0-2.37-.97-2.1-2.45l.29-1.48c.3-1.5 1.24-2.36 2.64-2.36.91 0 1.67.41 1.95 1.09l.29-.96h.4v.01zm-1.28 4.02.38-2c.1-1.05-.7-1.67-1.73-1.67-1.21 0-1.92.71-2.17 2.01l-.26 1.32c-.24 1.26.52 1.99 1.69 1.99 1.03 0 1.79-.56 2.09-1.65zM56.948 63.665l-.68 3.49h-.5l.67-3.48c.28-1.44-.5-2.2-1.57-2.2-.91 0-1.83.6-2.19 1.78l-.74 3.9h-.5l1.16-6.02h.38l-.11.94c.5-.71 1.28-1.07 2.1-1.07 1.33 0 2.3.96 1.98 2.66zM65.228 58.265l-4.46 9.49h-.5l4.45-9.49h.51zM67.908 64.835l.29-1.47c.3-1.5 1.3-2.36 2.69-2.36 1.49 0 2.41.89 2.17 2.12l-.04.22h-.52l.04-.19c.2-1.05-.53-1.67-1.67-1.67s-1.93.68-2.18 2.01l-.26 1.32c-.24 1.24.5 1.99 1.69 1.99 1.12 0 1.81-.58 2.05-1.7l.03-.16h.5l-.06.28c-.28 1.32-1.19 2.06-2.53 2.06-1.51 0-2.48-.99-2.2-2.45zM74.138 64.855l.3-1.5c.3-1.5 1.24-2.35 2.71-2.35 1.58 0 2.47.98 2.18 2.43l-.29 1.49c-.3 1.51-1.22 2.36-2.69 2.36-1.58 0-2.5-.99-2.21-2.43zm4.42-.06.26-1.34c.24-1.24-.42-1.97-1.69-1.97-1.24 0-1.97.67-2.22 2l-.26 1.34c-.24 1.24.44 1.98 1.71 1.98 1.24 0 1.94-.68 2.2-2.01zM86.668 57.925l-1.8 9.23h-.38l.07-.8c-.44.61-1.15.94-1.99.94-1.43 0-2.37-.97-2.1-2.45l.29-1.48c.3-1.5 1.24-2.36 2.64-2.36.91 0 1.67.41 1.95 1.08l.8-4.16h.52zm-1.86 6.99.31-1.66c.17-1.12-.64-1.78-1.7-1.78-1.21 0-1.92.71-2.17 2.01l-.26 1.32c-.24 1.26.52 1.99 1.69 1.99 1.1.01 1.89-.64 2.13-1.88zM87.948 61.135h.5l-1.18 6.02h-.5l1.18-6.02zm.33-2.04h.61l-.17.88h-.61l.17-.88zM94.698 63.665l-.68 3.49h-.5l.67-3.48c.28-1.44-.5-2.2-1.57-2.2-.91 0-1.83.6-2.19 1.78l-.74 3.9h-.5l1.16-6.02h.38l-.11.94c.5-.71 1.28-1.07 2.1-1.07 1.33 0 2.3.96 1.98 2.66zM101.608 61.135l-1.3 6.66c-.27 1.41-1.24 2.25-2.57 2.25-1.2 0-2.06-.62-1.99-1.58h.49c-.01.67.65 1.1 1.54 1.1 1.06 0 1.85-.74 2.07-1.96l.23-1.19c-.44.56-1.14.86-1.94.86-1.43 0-2.37-.97-2.1-2.45l.29-1.48c.3-1.5 1.24-2.36 2.64-2.36.91 0 1.67.41 1.95 1.09l.29-.96h.4v.02zm-1.28 4.02.38-2c.1-1.05-.7-1.67-1.73-1.67-1.21 0-1.92.71-2.17 2.01l-.26 1.32c-.24 1.26.52 1.99 1.69 1.99 1.03 0 1.79-.56 2.09-1.65zM109.458 58.265l-4.46 9.49h-.5l4.45-9.49h.51zM117.718 61.135l-1.29 6.66c-.28 1.42-1.25 2.25-2.58 2.25-1.2 0-2.06-.62-1.99-1.58h.49c-.01.67.65 1.1 1.54 1.1 1.06 0 1.85-.74 2.08-1.96l.23-1.19c-.44.56-1.14.86-1.94.86-1.43 0-2.38-.97-2.1-2.45l.29-1.48c.3-1.5 1.24-2.36 2.64-2.36.91 0 1.67.41 1.96 1.09l.29-.96h.38v.02zm-1.29 4.02.38-2c.1-1.05-.7-1.67-1.73-1.67-1.21 0-1.92.71-2.17 2.01l-.26 1.32c-.24 1.26.52 1.99 1.69 1.99 1.04 0 1.79-.56 2.09-1.65zM122.398 61.075l-.1.49c-.14-.02-.25-.04-.37-.04-.94 0-1.93.47-2.22 1.48l-.8 4.15h-.5l1.16-6.02h.38l-.1.82c.5-.6 1.34-.9 2.12-.9.15-.01.29.01.43.02zM128.278 61.135l-1.18 6.02h-.38l.07-.8c-.44.61-1.15.94-1.99.94-1.43 0-2.38-.97-2.1-2.45l.29-1.48c.3-1.5 1.24-2.36 2.64-2.36.91 0 1.67.41 1.95 1.09l.29-.96h.41zm-1.26 3.88.35-1.83c.12-1.08-.67-1.7-1.71-1.7-1.21 0-1.92.71-2.17 2.01l-.26 1.32c-.24 1.26.52 1.99 1.69 1.99 1.05 0 1.83-.61 2.1-1.79zM134.538 63.435l-.29 1.48c-.3 1.52-1.29 2.37-2.71 2.37-.89 0-1.61-.35-1.9-1.03l-.71 3.66h-.5l1.7-8.78h.4l-.07.79c.46-.61 1.14-.92 2.04-.92 1.4 0 2.33.98 2.04 2.43zm-2.11-1.95c-1.17 0-1.86.56-2.21 1.83l-.35 1.75c-.12 1.2.61 1.74 1.68 1.74 1.16 0 1.97-.7 2.22-2.01l.25-1.33c.24-1.24-.48-1.98-1.59-1.98zM140.998 63.665l-.68 3.49h-.5l.67-3.48c.28-1.44-.5-2.2-1.57-2.2-.92 0-1.86.62-2.2 1.83l-.74 3.84h-.5l1.79-9.23h.5l-.79 4.07c.52-.65 1.26-.98 2.04-.98 1.33 0 2.31.96 1.98 2.66zM143.308 61.135h.5l-1.17 6.02h-.5l1.17-6.02zm.34-2.04h.61l-.17.88h-.61l.17-.88zM144.748 64.835l.29-1.48c.3-1.5 1.3-2.36 2.69-2.36 1.49 0 2.41.89 2.17 2.12l-.04.22h-.52l.04-.19c.2-1.05-.53-1.67-1.67-1.67s-1.93.68-2.18 2.01l-.26 1.32c-.24 1.24.5 1.99 1.69 1.99 1.12 0 1.81-.58 2.05-1.7l.04-.16h.5l-.06.28c-.28 1.32-1.19 2.06-2.53 2.06-1.51.01-2.48-.98-2.21-2.44zM160.088 57.925l-1.8 9.23h-.38l.07-.8c-.44.61-1.15.94-1.99.94-1.43 0-2.38-.97-2.1-2.45l.29-1.48c.3-1.5 1.24-2.36 2.64-2.36.91 0 1.67.41 1.96 1.08l.8-4.16h.51zm-1.86 6.99.31-1.66c.17-1.12-.64-1.78-1.7-1.78-1.21 0-1.92.71-2.17 2.01l-.26 1.32c-.24 1.26.52 1.99 1.69 1.99 1.1.01 1.89-.64 2.13-1.88zM165.498 63.415l-.17.89h-4.31l-.11.52c-.24 1.25.49 1.97 1.68 1.97 1.1 0 1.81-.58 2.04-1.69h.53c-.28 1.43-1.25 2.19-2.58 2.19-1.55 0-2.48-1.01-2.21-2.45l.3-1.48c.3-1.52 1.32-2.36 2.7-2.36 1.48 0 2.4.97 2.13 2.41zm-.6.38.06-.32c.24-1.24-.44-1.97-1.61-1.97-1.13 0-1.92.67-2.17 1.99l-.06.3h3.78zM166.448 65.185h.49c-.24 1.06.55 1.63 1.8 1.63 1.06 0 1.74-.55 1.74-1.33 0-1.77-3.43-.78-3.43-2.73 0-1.08.96-1.75 2.28-1.75 1.5 0 2.4.76 2.12 2.08h-.5c.25-1.12-.5-1.62-1.64-1.62-1.03 0-1.75.47-1.75 1.24 0 1.58 3.43.61 3.43 2.73 0 1.07-.89 1.85-2.3 1.85-1.53-.01-2.54-.78-2.24-2.1zM173.408 61.135h.5l-1.18 6.02h-.5l1.18-6.02zm.33-2.04h.61l-.17.88h-.61l.17-.88zM180.428 61.135l-1.3 6.66c-.28 1.42-1.25 2.25-2.58 2.25-1.2 0-2.06-.62-1.99-1.58h.49c-.01.67.65 1.1 1.54 1.1 1.05 0 1.85-.74 2.07-1.96l.23-1.19c-.44.56-1.14.86-1.94.86-1.43 0-2.38-.97-2.1-2.45l.29-1.48c.3-1.5 1.24-2.36 2.64-2.36.91 0 1.67.41 1.95 1.09l.29-.96h.41v.02zm-1.29 4.02.38-2c.1-1.05-.7-1.67-1.73-1.67-1.21 0-1.92.71-2.17 2.01l-.26 1.32c-.24 1.26.52 1.99 1.69 1.99 1.04 0 1.79-.56 2.09-1.65zM186.638 63.665l-.68 3.49h-.5l.67-3.48c.28-1.44-.5-2.2-1.57-2.2-.91 0-1.83.6-2.19 1.78l-.74 3.9h-.5l1.16-6.02h.38l-.11.94c.5-.71 1.28-1.07 2.1-1.07 1.33 0 2.31.96 1.98 2.66z"/></g></g></svg>